<?xml version="1.0" encoding="UTF-8"?>
<svg version="1.1" xmlns="http://www.w3.org/2000/svg" width="800" height="955">
<path d="M0 0 C2.20661619 0.00565629 4.41322465 0.00846666 6.61984634 0.0110817 C28.57905851 0.04888498 50.36914485 0.45978977 72.16827774 3.31805801 C73.17658646 3.44887772 73.17658646 3.44887772 74.20526505 3.58234024 C101.7163986 7.17931637 128.7095218 12.93726581 155.16827774 21.31805801 C156.01905899 21.58698868 156.86984024 21.85591934 157.74640274 22.13299942 C219.99385614 42.13586623 276.83972276 81.77715535 307.44952774 140.64618301 C316.74765619 159.12333494 323.07142365 178.87207038 326.16827774 199.31805801 C326.34181778 200.45839493 326.34181778 200.45839493 326.51886368 201.62176895 C336.52475557 271.00980856 309.23126855 339.14466654 268.71564102 394.25946426 C264.06850287 400.44196173 259.15092119 406.40478958 254.16827774 412.31805801 C252.92413101 413.81816422 252.92413101 413.81816422 251.65485001 415.34857559 C244.26160995 424.18750379 236.36612724 432.43081327 228.19537735 440.55170059 C226.09738266 442.63890993 224.01038659 444.73669391 221.92413712 446.83563614 C215.34105903 453.42484046 208.7541423 459.78141778 201.41705704 465.53461075 C199.1993505 467.29341503 197.11833617 469.14426155 195.04327774 471.06805801 C182.65046911 482.18416522 168.6981803 491.65862025 155.16827774 501.31805801 C155.16827774 500.32805801 155.16827774 499.33805801 155.16827774 498.31805801 C156.67999649 496.88055801 156.67999649 496.88055801 158.85577774 495.31805801 C197.54672772 466.40547605 232.21380157 427.75130825 242.77765274 379.53680801 C246.22325147 351.1450745 239.4057016 325.95414726 222.16827774 303.31805801 C213.19423013 292.00169099 203.48433601 282.29999461 192.16827774 273.31805801 C191.20148087 272.53430801 190.23468399 271.75055801 189.23859024 270.94305801 C120.95944712 216.73671539 25.96818239 192.16177259 -91.83172226 165.31805801 C-92.88323471 165.09353958 -93.93474716 164.86902115 -95.01812363 164.63769913 C-180.51256605 146.43906786 -267.35382152 134.03072919 -406.44109726 118.98212051 C-407.16978327 118.90657755 -407.89846928 118.83103458 -408.64923668 118.75320244 C-415.64698159 118.02861037 -422.64432427 117.32104938 -429.65398788 116.7194252 C-430.65351486 116.632202 -431.65304184 116.54497879 -432.68285751 116.45511246 C-434.47913506 116.30145631 -436.27612592 116.15582034 -438.07384872 116.0201149 C-440.00035767 115.85577747 -441.91860804 115.59812495 -443.83172226 115.31805801 C-444.16172226 114.65805801 -444.49172226 113.99805801 -444.83172226 113.31805801 C-365.28147514 76.2922836 -281.97710249 46.99724498 -138.83172226 13.31805801 C-138.11858871 13.18570755 -137.40545517 13.05335709 -136.67071152 12.916996 C-117.96993676 9.45786565 -99.22611388 6.73311535 -80.33172226 4.56805801 C-79.45952042 4.4670076 -78.58731857 4.36595718 -77.68868637 4.26184464 C-51.81240492 1.29625177 -26.03167194 -0.06785761 0 0 Z " fill="#21287B" transform="translate(457.8317222595215,17.681941986083984)"/>
<path d="M0 0 C0.99 0.495 0.99 0.495 2 1 C1.68361572 1.7892688 1.68361572 1.7892688 1.36083984 2.59448242 C-12.36773773 37.08725423 -22.74914145 74.41060695 -8.25 110.5 C7.05569988 143.0961788 37.57033781 159.87277524 69.984375 171.87109375 C132.83615616 194.29262541 202.75234073 196.38971748 268.67578125 200.21875 C270.51305204 200.32591586 272.35032214 200.43309366 274.18759155 200.5402832 C282.35425735 201.01560508 290.52106866 201.48594924 298.68936253 201.93250942 C317.24216564 202.95147583 335.740421 204.22408899 354.234375 206.03515625 C355.08851801 206.11835114 355.94266102 206.20154602 356.82268715 206.28726196 C419.79712437 212.47839708 419.79712437 212.47839708 435.3125 229 C438.55418415 233.33075389 440.93008062 237.90357023 441.0546875 243.421875 C439.36001507 247.5644076 435.91745402 248.93194761 432.125 251.0625 C430.46252929 252.03472928 428.80110206 253.00874465 427.140625 253.984375 C425.85575195 254.73170898 425.85575195 254.73170898 424.54492188 255.49414062 C420.59065711 257.83392431 416.7395423 260.32844617 412.875 262.8125 C401.77612653 269.8717607 390.41424313 276.46655255 379 283 C377.99694824 283.57508301 376.99389648 284.15016602 375.96044922 284.74267578 C360.30492066 293.69049602 344.41126764 302.11548933 328.34472656 310.29394531 C325.35687721 311.81796657 322.37672939 313.35585717 319.3984375 314.8984375 C289.56393781 330.23047928 258.3490412 342.46223268 226.6875 353.4375 C225.5798378 353.82412811 225.5798378 353.82412811 224.44979858 354.21856689 C222.30627891 354.96443308 220.15961366 355.70043442 218.01171875 356.43359375 C216.77897217 356.85697021 215.54622559 357.28034668 214.27612305 357.71655273 C208.59349171 359.42215324 202.78113547 360.66589181 197 362 C197.66 379.82 198.32 397.64 199 416 C206.26378346 417.18275327 206.26378346 417.18275327 212.3125 415.3125 C213.13363281 414.97863281 213.95476562 414.64476562 214.80078125 414.30078125 C217.50463166 412.70152337 218.46335259 411.77387455 220 409 C220.47963981 405.81269471 220.48881481 402.64084372 220.51171875 399.421875 C220.52966995 398.4953009 220.54762115 397.56872681 220.56611633 396.61407471 C220.62022701 393.6594292 220.65411757 390.70494531 220.6875 387.75 C220.7206724 385.74476917 220.75516198 383.73955968 220.79101562 381.734375 C220.87595402 376.82303326 220.94276173 371.91173952 221 367 C237.7158263 361.22018334 254.65835127 356.16124785 271.58056641 351.02807617 C274.73422685 350.07060996 277.88697766 349.11016795 281.0397253 348.14970112 C284.11167128 347.21417637 287.1841021 346.28025241 290.25668526 345.34682274 C291.70746097 344.90594374 293.15811167 344.46465311 294.60862541 344.02291298 C302.70677859 341.55799633 310.81544576 339.16425442 319 337 C319.0928022 346.02317278 319.1638165 355.04618052 319.20724869 364.06972694 C319.22809718 368.26003538 319.25636416 372.45001659 319.30175781 376.64013672 C319.34531419 380.68612242 319.3691577 384.73179395 319.37950897 388.77799606 C319.38688286 390.31934935 319.40128257 391.86068602 319.42292023 393.40190506 C319.45208611 395.56599936 319.45595076 397.72880625 319.45410156 399.89306641 C319.46298401 401.12328522 319.47186646 402.35350403 319.48101807 403.6210022 C318.61747062 409.68714631 314.76399232 413.82082343 310.11604309 417.52789307 C302.80890289 422.61138678 293.12365443 424.61251567 284.70703125 427.140625 C283.39239328 427.53905755 282.07787766 427.93789395 280.76347351 428.33709717 C277.93602424 429.19491889 275.10775838 430.04997194 272.27880859 430.90283203 C267.71579213 432.27849667 263.154657 433.66032903 258.59375 435.04296875 C252.9141442 436.76426694 247.23406948 438.48400246 241.55339622 440.2017746 C230.79737897 443.4542913 220.04443857 446.71686037 209.29296875 449.984375 C208.47936071 450.23163267 207.66575268 450.47889034 206.82748985 450.73364067 C203.53283321 451.73492077 200.2381916 452.73625033 196.94357967 453.73767757 C191.11875962 455.50816516 185.293701 457.27786605 179.46850586 459.04711914 C159.35123601 465.15732086 139.23553029 471.27263673 119.12191772 477.39486694 C115.61078738 478.46358398 112.09958771 479.53207305 108.58836651 480.60049152 C94.57175364 484.86565086 80.55624305 489.1343836 66.54321289 493.41130066 C60.91839092 495.1280034 55.29316811 496.84339098 49.66785049 498.55846882 C45.08216404 499.95671011 40.49701689 501.35670159 35.91227818 502.7580471 C33.08771932 503.62092993 30.26265223 504.48213922 27.43744469 505.34289551 C25.51295697 505.92978134 23.58908623 506.51868917 21.66523743 507.10766602 C8.0895763 511.23977042 -4.24896732 514.73492681 -18 509 C-22.14317718 506.34449865 -25.10823159 503.58593602 -27 499 C-27.24050903 496.3550415 -27.24050903 496.3550415 -27.22705078 493.31347656 C-27.22689972 492.17259583 -27.22674866 491.03171509 -27.22659302 489.85626221 C-27.21627045 488.63010193 -27.20594788 487.40394165 -27.1953125 486.140625 C-27.1924826 484.88111023 -27.18965271 483.62159546 -27.18673706 482.32391357 C-27.17744121 478.98326098 -27.15948583 475.64288331 -27.1373291 472.30230713 C-27.11683208 468.89036428 -27.10772712 465.47839298 -27.09765625 462.06640625 C-27.07559907 455.37752832 -27.04212367 448.68878003 -27 442 C-26.19329865 441.75467529 -25.38659729 441.50935059 -24.55545044 441.2565918 C-16.82272791 438.90492216 -9.09013259 436.55283475 -1.35766792 434.20031738 C3.38739778 432.75670116 8.13256604 431.31342273 12.87781906 429.87042236 C15.94674893 428.93705497 19.01553718 428.00322242 22.0843277 427.06939697 C24.36292113 426.37629774 26.64174828 425.68397089 28.92059326 424.99169922 C35.92783655 422.86134057 42.92995592 420.7169094 49.91894531 418.52734375 C51.12438995 418.15109863 52.32983459 417.77485352 53.57180786 417.38720703 C55.79687556 416.69125456 58.02051177 415.99070182 60.24240112 415.28466797 C61.21573395 414.98061035 62.18906677 414.67655273 63.19189453 414.36328125 C64.03027863 414.09813721 64.86866272 413.83299316 65.73245239 413.55981445 C68 413 68 413 72 413 C72.33 427.19 72.66 441.38 73 456 C76.95544312 457.97772156 81.69060691 457.43441463 86 457 C89.59608207 455.79940931 93.22652337 454.54695326 95 451 C95.14568165 449.6557809 95.2360059 448.30532029 95.29663086 446.95458984 C95.35519005 445.68743637 95.35519005 445.68743637 95.41493225 444.39468384 C95.45202805 443.46779755 95.48912384 442.54091125 95.52734375 441.5859375 C95.56866928 440.61433685 95.60999481 439.64273621 95.65257263 438.64169312 C96.14836396 426.30747629 96.35149406 413.96669429 96.5625 401.625 C96.60584565 399.22004713 96.64946403 396.81509915 96.69335938 394.41015625 C96.79870327 388.6068233 96.90073331 382.80343992 97 377 C96.30682678 377.00621872 95.61365356 377.01243744 94.8994751 377.0188446 C91.68820531 377.04388209 88.47695617 377.05908813 85.265625 377.07421875 C84.17588379 377.0841687 83.08614258 377.09411865 81.96337891 377.10437012 C34.98732228 377.2695339 -11.19872968 359.7769894 -45 327 C-73.65039873 297.9107549 -88.8989584 255.35556839 -90 215 C-90.02046387 214.30084473 -90.04092773 213.60168945 -90.06201172 212.88134766 C-92.11677291 131.82866016 -54.12615618 58.10448101 0 0 Z " fill="#FDCC0A" transform="translate(165,283)"/>
<path d="M0 0 C0.1164248 7.78055619 0.20498161 15.56090406 0.25906086 23.3421154 C0.28503134 26.95625701 0.32019409 30.56979782 0.37719727 34.18359375 C0.431973 37.67849662 0.46151462 41.17282578 0.47438622 44.66812515 C0.48796899 46.63448279 0.5269284 48.60061318 0.56648254 50.56661987 C0.56947787 60.24694791 -1.77607406 66.30227935 -7.1875 74.1875 C-19.06218724 86.06218724 -35.46689414 90.36806937 -51.13671875 95.07421875 C-52.63367906 95.52878991 -54.13048675 95.98386396 -55.62715149 96.43940735 C-58.73435077 97.38367539 -61.8428112 98.32361675 -64.95239258 99.26000977 C-68.9043326 100.45018349 -72.85365746 101.64876771 -76.8021574 102.85029888 C-79.88235604 103.78706143 -82.96351151 104.72064236 -86.04499245 105.65317726 C-87.50059677 106.09381393 -88.95600573 106.53509662 -90.41119957 106.97708702 C-98.88803449 109.5484201 -107.37918542 111.95323038 -116 114 C-115.99555878 115.03015228 -115.99111755 116.06030457 -115.98654175 117.12167358 C-115.94588425 126.86063232 -115.91596229 136.59957369 -115.89637566 146.33859825 C-115.88596727 151.3447462 -115.87186216 156.35082527 -115.84912109 161.35693359 C-115.82728731 166.19394222 -115.81540925 171.03088487 -115.81024551 175.867939 C-115.8065686 177.70738386 -115.79938879 179.54682537 -115.78853989 181.38624191 C-115.63791086 207.9992046 -115.63791086 207.9992046 -125 218 C-135.37446632 226.41216417 -148.48351709 229.54948551 -161.046875 233.359375 C-162.42981897 233.78114997 -163.81268509 234.20318023 -165.19548035 234.6254425 C-168.93293867 235.76591071 -172.67151055 236.90268656 -176.41032028 238.03871536 C-180.36343802 239.24050033 -184.31555721 240.44556096 -188.26782227 241.65014648 C-195.86313357 243.96441867 -203.45948531 246.2752571 -211.05626202 248.58471394 C-217.31828934 250.4884483 -223.57990896 252.39351864 -229.84130859 254.29931641 C-239.6762872 257.29272216 -249.51174571 260.28454699 -259.34761047 263.27503967 C-261.06868494 263.7983353 -262.7897442 264.32168092 -264.51078796 264.84507751 C-269.44032622 266.34422728 -274.37010396 267.84258446 -279.30025673 269.33971214 C-280.78827881 269.79168718 -282.27622726 270.24390473 -283.76408958 270.69640541 C-287.81821736 271.92924554 -291.87437312 273.15503501 -295.93250656 274.37462234 C-298.13919958 275.04210524 -300.34223279 275.72098068 -302.54544067 276.39987183 C-304.05567619 276.85859181 -305.56599902 277.31702443 -307.07641602 277.77514648 C-307.76376548 277.98978829 -308.45111494 278.2044301 -309.15929317 278.42557621 C-316.76620867 280.71220598 -324.21903766 281.62972515 -331.625 278.4375 C-338.07029969 271.82258716 -337.40261888 264.35730626 -337.29296875 255.62890625 C-337.28660149 253.71270729 -337.28660149 253.71270729 -337.28010559 251.75779724 C-337.2662045 248.38251703 -337.2393115 245.00785948 -337.20599365 241.63275146 C-337.17515321 238.18035221 -337.1615706 234.7278883 -337.14648438 231.27539062 C-337.11347325 224.51675674 -337.06331661 217.75841427 -337 211 C-329.09293474 207.8583593 -320.95454784 205.47053449 -312.8203125 203 C-311.24137896 202.51844535 -309.66251251 202.03667065 -308.08370972 201.5546875 C-303.94219748 200.29102284 -299.79974997 199.03045158 -295.65710449 197.77050781 C-291.46481153 196.49481224 -287.27347989 195.21596631 -283.08203125 193.9375 C-267.18013946 189.08881095 -267.18013946 189.08881095 -260.62213135 187.1015625 C-258.36720171 186.41579335 -256.11404388 185.72413549 -253.8637085 185.0234375 C-252.97137512 184.74757813 -252.07904175 184.47171875 -251.15966797 184.1875 C-250.41474091 183.95417969 -249.66981384 183.72085938 -248.90231323 183.48046875 C-247 183 -247 183 -244 183 C-243.9906543 184.00901367 -243.98130859 185.01802734 -243.97167969 186.05761719 C-243.9317523 189.80773776 -243.86598719 193.55704029 -243.79248047 197.30664062 C-243.76428653 198.92827837 -243.74306406 200.55005313 -243.72900391 202.171875 C-243.70755128 204.50592105 -243.66089425 206.83832261 -243.609375 209.171875 C-243.60814636 209.89493835 -243.60691772 210.61800171 -243.60565186 211.36297607 C-243.50750218 214.74969112 -243.23482621 216.68372678 -241.19238281 219.43457031 C-237.31068022 222.20622699 -233.22965089 222.27499028 -228.65625 221.7109375 C-224.20251973 220.83503721 -220.80967152 219.53978101 -217 217 C-216.34 217 -215.68 217 -215 217 C-213.92032218 213.76096653 -213.86184716 211.39089587 -213.84178162 207.98262024 C-213.8319928 206.72478729 -213.82220398 205.46695435 -213.81211853 204.17100525 C-213.80621435 202.77456703 -213.8004039 201.37812841 -213.79467773 199.98168945 C-213.78509901 198.51328251 -213.77508893 197.04487833 -213.76467896 195.57647705 C-213.73762324 191.58713014 -213.71661728 187.59777139 -213.69667697 183.60838342 C-213.67482154 179.44033156 -213.64743068 175.27231622 -213.62062073 171.10429382 C-213.57068786 163.21019459 -213.52575123 155.3160751 -213.48259836 147.42193621 C-213.43323107 138.43531463 -213.37831106 129.44872969 -213.32291877 120.46214354 C-213.2090896 101.97479637 -213.10225258 83.48741464 -213 65 C-208.989412 63.23776144 -205.06534616 61.60717592 -200.86376953 60.34936523 C-199.90863968 60.06121445 -198.95350983 59.77306366 -197.96943665 59.47618103 C-196.95085068 59.17337723 -195.93226471 58.87057343 -194.8828125 58.55859375 C-193.26496101 58.07218163 -193.26496101 58.07218163 -191.61442566 57.57594299 C-188.11909066 56.52595048 -184.6220882 55.48163689 -181.125 54.4375 C-178.72668827 53.71849367 -176.32849531 52.99909108 -173.93041992 52.27929688 C-170.339293 51.20149789 -166.74807145 50.12402624 -163.15635681 49.04818726 C-156.1757707 46.95680369 -149.19988391 44.85096416 -142.23046875 42.72265625 C-141.44696045 42.48365097 -140.66345215 42.24464569 -139.85620117 41.99839783 C-136.98002847 41.12079671 -134.10392211 40.24301952 -131.22930908 39.36032104 C-129.33719398 38.77950537 -127.44402086 38.20213963 -125.55078125 37.625 C-124.51606689 37.30789063 -123.48135254 36.99078125 -122.4152832 36.6640625 C-120 36 -120 36 -118 36 C-117.97812622 37.70313354 -117.97812622 37.70313354 -117.95581055 39.44067383 C-117.89786324 43.65095609 -117.82063059 47.8607015 -117.73754883 52.07055664 C-117.7042826 53.89305919 -117.67625594 55.71566519 -117.65356445 57.53833008 C-117.62004919 60.1575125 -117.56773648 62.77574548 -117.51171875 65.39453125 C-117.50213387 66.61811089 -117.50213387 66.61811089 -117.49235535 67.8664093 C-117.51029296 72.09134728 -117.51029296 72.09134728 -115.59455872 75.6870575 C-112.51122307 78.22584292 -108.90916163 78.74144128 -105 79 C-100.19695337 78.34120892 -97.0846164 77.2826834 -93.91040039 73.52880859 C-91.2087685 69.32789899 -91.39735837 65.09164457 -91.390625 60.2265625 C-91.37408875 59.3028183 -91.35755249 58.3790741 -91.34051514 57.42733765 C-91.29214764 54.4931567 -91.27068917 51.55949362 -91.25 48.625 C-91.22183091 46.62888035 -91.19190218 44.63278471 -91.16015625 42.63671875 C-91.08639161 37.75785515 -91.03674822 32.87927714 -91 28 C-82.86497588 24.51229115 -74.51045985 21.90780884 -66.04296875 19.375 C-64.60854677 18.94229623 -63.17424838 18.50918257 -61.74006653 18.07568359 C-57.98655868 16.94227167 -54.23148293 15.81414752 -50.47601318 14.68725586 C-46.68817358 13.54974222 -42.90173309 12.40759265 -39.11523438 11.265625 C-34.8370006 9.97545554 -30.55866896 8.68563217 -26.27909851 7.39990234 C-25.30224327 7.1062529 -25.30224327 7.1062529 -24.30565357 6.80667114 C-22.41966804 6.23976896 -20.53361111 5.6731043 -18.64755249 5.10644531 C-13.92166196 3.6728979 -9.20904771 2.19782102 -4.4992218 0.71240234 C-2 0 -2 0 0 0 Z " fill="#21287B" transform="translate(728,546)"/>
<path d="M0 0 C0.0154612 1.39464226 0.0154612 1.39464226 0.03123474 2.81745911 C0.1303056 11.71236146 0.23312671 20.60721418 0.33933926 29.50203419 C0.39379084 34.07156901 0.44705818 38.64111032 0.49731445 43.21069336 C0.72854898 64.15501275 1.04971215 85.07354527 2 106 C3.26094482 106.17813232 4.52188965 106.35626465 5.82104492 106.53979492 C6.53032639 106.63999435 7.23960785 106.74019379 7.97038269 106.84342957 C10.7670033 107.05916881 12.75197274 106.41103562 15.3125 105.3125 C16.13363281 104.97863281 16.95476562 104.64476562 17.80078125 104.30078125 C20.50463166 102.70152337 21.46335259 101.77387455 23 99 C23.47963981 95.81269471 23.48881481 92.64084372 23.51171875 89.421875 C23.52966995 88.4953009 23.54762115 87.56872681 23.56611633 86.61407471 C23.62022701 83.6594292 23.65411757 80.70494531 23.6875 77.75 C23.7206724 75.74476917 23.75516198 73.73955968 23.79101562 71.734375 C23.87595402 66.82303326 23.94276173 61.91173952 24 57 C40.7158263 51.22018334 57.65835127 46.16124785 74.58056641 41.02807617 C77.73422685 40.07060996 80.88697766 39.11016795 84.0397253 38.14970112 C87.11167128 37.21417637 90.1841021 36.28025241 93.25668526 35.34682274 C94.70746097 34.90594374 96.15811167 34.46465311 97.60862541 34.02291298 C105.70677859 31.55799633 113.81544576 29.16425442 122 27 C122.0928022 36.02317278 122.1638165 45.04618052 122.20724869 54.06972694 C122.22809718 58.26003538 122.25636416 62.45001659 122.30175781 66.64013672 C122.34531419 70.68612242 122.3691577 74.73179395 122.37950897 78.77799606 C122.38688286 80.31934935 122.40128257 81.86068602 122.42292023 83.40190506 C122.45208611 85.56599936 122.45595076 87.72880625 122.45410156 89.89306641 C122.46298401 91.12328522 122.47186646 92.35350403 122.48101807 93.6210022 C121.61747062 99.68714631 117.76399232 103.82082343 113.11604309 107.52789307 C105.80890289 112.61138678 96.12365443 114.61251567 87.70703125 117.140625 C86.39239328 117.53905755 85.07787766 117.93789395 83.76347351 118.33709717 C80.93602424 119.19491889 78.10775838 120.04997194 75.27880859 120.90283203 C70.71579213 122.27849667 66.154657 123.66032903 61.59375 125.04296875 C55.9141442 126.76426694 50.23406948 128.48400246 44.55339622 130.2017746 C33.79737897 133.4542913 23.04443857 136.71686037 12.29296875 139.984375 C11.47936071 140.23163267 10.66575268 140.47889034 9.82748985 140.73364067 C6.53283321 141.73492077 3.2381916 142.73625033 -0.05642033 143.73767757 C-5.88124038 145.50816516 -11.706299 147.27786605 -17.53149414 149.04711914 C-37.64876399 155.15732086 -57.76446971 161.27263673 -77.87808228 167.39486694 C-81.38921262 168.46358398 -84.90041229 169.53207305 -88.41163349 170.60049152 C-102.42824636 174.86565086 -116.44375695 179.1343836 -130.45678711 183.41130066 C-136.08160908 185.1280034 -141.70683189 186.84339098 -147.33214951 188.55846882 C-151.91783596 189.95671011 -156.50298311 191.35670159 -161.08772182 192.7580471 C-163.91228068 193.62092993 -166.73734777 194.48213922 -169.56255531 195.34289551 C-171.48704303 195.92978134 -173.41091377 196.51868917 -175.33476257 197.10766602 C-188.9104237 201.23977042 -201.24896732 204.73492681 -215 199 C-219.14317718 196.34449865 -222.10823159 193.58593602 -224 189 C-224.24050903 186.3550415 -224.24050903 186.3550415 -224.22705078 183.31347656 C-224.22689972 182.17259583 -224.22674866 181.03171509 -224.22659302 179.85626221 C-224.21627045 178.63010193 -224.20594788 177.40394165 -224.1953125 176.140625 C-224.1924826 174.88111023 -224.18965271 173.62159546 -224.18673706 172.32391357 C-224.17744121 168.98326098 -224.15948583 165.64288331 -224.1373291 162.30230713 C-224.11683208 158.89036428 -224.10772712 155.47839298 -224.09765625 152.06640625 C-224.07559907 145.37752832 -224.04212367 138.68878003 -224 132 C-222.78994797 131.63201294 -222.78994797 131.63201294 -221.55545044 131.2565918 C-213.82272791 128.90492216 -206.09013259 126.55283475 -198.35766792 124.20031738 C-193.61260222 122.75670116 -188.86743396 121.31342273 -184.12218094 119.87042236 C-181.05325107 118.93705497 -177.98446282 118.00322242 -174.9156723 117.06939697 C-172.63707887 116.37629774 -170.35825172 115.68397089 -168.07940674 114.99169922 C-161.07216345 112.86134057 -154.07004408 110.7169094 -147.08105469 108.52734375 C-145.87561005 108.15109863 -144.67016541 107.77485352 -143.42819214 107.38720703 C-141.20312444 106.69125456 -138.97948823 105.99070182 -136.75759888 105.28466797 C-135.78426605 104.98061035 -134.81093323 104.67655273 -133.80810547 104.36328125 C-132.96972137 104.09813721 -132.13133728 103.83299316 -131.26754761 103.55981445 C-129 103 -129 103 -125 103 C-124.67 117.19 -124.34 131.38 -124 146 C-120.04455688 147.97772156 -115.30939309 147.43441463 -111 147 C-107.40391793 145.79940931 -103.77347663 144.54695326 -102 141 C-101.85144196 139.58819818 -101.75822558 138.17034184 -101.69471741 136.75216675 C-101.65439361 135.87767946 -101.61406981 135.00319218 -101.57252407 134.10220528 C-101.53449201 133.15308203 -101.49645994 132.20395878 -101.45727539 131.22607422 C-101.41545419 130.23989546 -101.37363298 129.2537167 -101.33054447 128.23765373 C-100.91839728 117.954385 -100.7769463 107.67306 -100.68359375 97.3828125 C-100.6629366 95.41885022 -100.6419385 93.4548915 -100.62062073 91.49093628 C-100.56630161 86.40477445 -100.51650801 81.31857883 -100.46777344 76.23236084 C-100.41688532 71.00904452 -100.36155636 65.78577525 -100.30664062 60.5625 C-100.20016783 50.3750405 -100.09849286 40.18753956 -100 30 C-95.55127593 28.02913626 -91.17849126 26.33997789 -86.51171875 24.93457031 C-85.26511475 24.55697571 -84.01851074 24.1793811 -82.73413086 23.79034424 C-81.38527565 23.38619857 -80.03639808 22.98212755 -78.6875 22.578125 C-77.27275889 22.15113798 -75.85812888 21.72378272 -74.44360352 21.29608154 C-70.71843202 20.17075711 -66.99183471 19.05023029 -63.26489258 17.93078613 C-58.82486232 16.59619258 -54.38655588 15.25588044 -49.94798279 13.9164505 C-46.3494292 12.83072578 -42.7505026 11.74627693 -39.15063477 10.66491699 C-32.72187621 8.73290609 -26.29761002 6.78958812 -19.88671875 4.79882812 C-18.8181665 4.46824402 -17.74961426 4.13765991 -16.64868164 3.79705811 C-14.69715658 3.19186474 -12.7470094 2.58220163 -10.79858398 1.96710205 C-9.94981689 1.70435486 -9.1010498 1.44160767 -8.2265625 1.17089844 C-7.50033691 0.94287537 -6.77411133 0.71485229 -6.02587891 0.47991943 C-4 0 -4 0 0 0 Z " fill="#22297B" transform="translate(362,593)"/>
<path d="M0 0 C0 10.23 0 20.46 0 31 C-13.95271906 35.79624718 -27.99972416 40.18245227 -42.125 44.4375 C-43.4850415 44.84941589 -43.4850415 44.84941589 -44.87255859 45.26965332 C-47.47879248 46.05804731 -50.08672276 46.84053474 -52.6953125 47.62109375 C-53.48825714 47.86139816 -54.28120178 48.10170258 -55.09817505 48.34928894 C-58.16127775 49.25918576 -60.78623787 50 -64 50 C-64 39.77 -64 29.54 -64 19 C-51.5 15.125 -51.5 15.125 -47.28955078 13.82104492 C-40.20523875 11.62469428 -33.12646887 9.41215655 -26.0546875 7.17578125 C-23.87206389 6.48729052 -21.68934202 5.79911215 -19.5065918 5.11102295 C-18.08732101 4.66257337 -16.66853554 4.21258487 -15.25024414 3.76104736 C-13.25915541 3.12725842 -11.26649044 2.49867362 -9.2734375 1.87109375 C-8.13310059 1.50943115 -6.99276367 1.14776855 -5.81787109 0.77514648 C-3 0 -3 0 0 0 Z " fill="#21287B" transform="translate(303,787)"/>
<path d="M0 0 C0 10.23 0 20.46 0 31 C-14.98076545 35.66737416 -29.96566572 40.31951493 -44.97659302 44.88897705 C-46.45058014 45.33800732 -47.9242746 45.78799944 -49.39767456 46.23895264 C-51.46611384 46.87168746 -53.53562054 47.50079817 -55.60546875 48.12890625 C-57.38667114 48.67140015 -57.38667114 48.67140015 -59.20385742 49.22485352 C-62 50 -62 50 -64 50 C-64 39.77 -64 29.54 -64 19 C-50.04728094 14.20375282 -36.00027584 9.81754773 -21.875 5.5625 C-20.5149585 5.15058411 -20.5149585 5.15058411 -19.12744141 4.73034668 C-16.52120752 3.94195269 -13.91327724 3.15946526 -11.3046875 2.37890625 C-10.51174286 2.13860184 -9.71879822 1.89829742 -8.90182495 1.65071106 C-5.83872225 0.74081424 -3.21376213 0 0 0 Z " fill="#21287B" transform="translate(376,762)"/>
<path d="M0 0 C0 9.24 0 18.48 0 28 C-9.00401529 31.37650573 -9.00401529 31.37650573 -13.6340332 32.80932617 C-14.66482498 33.12943161 -15.69561676 33.44953705 -16.75764465 33.77934265 C-17.84437973 34.11383926 -18.93111481 34.44833588 -20.05078125 34.79296875 C-21.18654099 35.14386063 -22.32230072 35.4947525 -23.49247742 35.85627747 C-25.87976683 36.59287087 -28.26745454 37.32817448 -30.65551758 38.06225586 C-34.31939576 39.18962181 -37.9810198 40.32410968 -41.64257812 41.45898438 C-43.96601218 42.17491306 -46.28957542 42.89042265 -48.61328125 43.60546875 C-49.71013748 43.94603806 -50.80699371 44.28660736 -51.93708801 44.63749695 C-53.45963448 45.10347038 -53.45963448 45.10347038 -55.01293945 45.57885742 C-55.90592239 45.85404709 -56.79890533 46.12923676 -57.71894836 46.4127655 C-60 47 -60 47 -63 47 C-63 37.43 -63 27.86 -63 18 C-55.23679052 15.65217067 -47.4734213 13.30512714 -39.70767975 10.96572876 C-36.09149211 9.87611768 -32.47576092 8.78504303 -28.86108398 7.69042969 C-25.38032261 6.63643073 -21.8983706 5.5864568 -18.41555214 4.53927612 C-17.08624278 4.13881893 -15.7573707 3.73690725 -14.42894554 3.33352661 C-12.56991965 2.769297 -10.70919019 2.21068953 -8.84838867 1.65234375 C-7.25954109 1.17269165 -7.25954109 1.17269165 -5.63859558 0.68334961 C-3 0 -3 0 0 0 Z " fill="#21287B" transform="translate(700,673)"/>
<path d="M0 0 C5.22445402 3.60506606 9.04353716 8.04522423 11.6171875 13.8359375 C12.84413506 22.73130729 12.88094534 30.56171193 8.1171875 38.4609375 C3.28819143 44.36922531 -2.39725499 47.31645143 -9.8828125 48.4609375 C-20.20790701 49.30356016 -29.89210717 48.9639136 -38.2578125 42.3359375 C-44.13083749 36.62935451 -46.08532564 31.02898298 -46.3203125 22.8984375 C-46.06372731 15.31590275 -44.49245649 8.92295928 -38.8828125 3.4609375 C-27.97753927 -3.6415744 -12.08304629 -5.89518868 0 0 Z M-26.8828125 11.4609375 C-29.74378397 16.41995472 -30.69980804 20.85237355 -29.8828125 26.4609375 C-28.37117705 30.99584386 -26.88965447 34.71941405 -22.8828125 37.4609375 C-18.6497331 38.61252571 -15.18010133 38.97985303 -11.0703125 37.3359375 C-6.92127739 33.77962169 -4.73613212 31.19565421 -3.9453125 25.7109375 C-3.6345261 20.50526529 -4.32367107 16.04684422 -6.8828125 11.4609375 C-10.04561489 8.44524219 -12.58691226 7.23199813 -16.8828125 6.9609375 C-21.1381342 7.21316498 -23.69391899 8.56868525 -26.8828125 11.4609375 Z " fill="#21287B" transform="translate(541.8828125,880.5390625)"/>
<path d="M0 0 C0 3.96 0 7.92 0 12 C-5 11 -5 11 -8.5625 9.4375 C-14.59122353 7.0789345 -21.87543617 6.95847872 -28 9 C-28 10.32 -28 11.64 -28 13 C-26.42412109 13.36351562 -26.42412109 13.36351562 -24.81640625 13.734375 C-4.09533985 18.63082518 -4.09533985 18.63082518 1 25 C2.74335816 28.48671632 2.43142518 32.18800436 2 36 C-0.37346424 41.61000638 -4.20155008 43.50584077 -9.46484375 46.01953125 C-20.59795875 50.32525061 -33.88602109 48.47087044 -45 45 C-46 44 -46 44 -46.09765625 41.27734375 C-46.08605469 40.17519531 -46.07445312 39.07304688 -46.0625 37.9375 C-46.05347656 36.83277344 -46.04445313 35.72804688 -46.03515625 34.58984375 C-46.02355469 33.73519531 -46.01195312 32.88054688 -46 32 C-42.37619876 32.61695541 -39.26208826 33.65205579 -35.875 35.0625 C-29.76717259 37.33537218 -22.858915 38.70495064 -16.68359375 35.9765625 C-16.12800781 35.65429688 -15.57242188 35.33203125 -15 35 C-15 34.01 -15 33.02 -15 32 C-20.03737127 30.23692006 -24.98168141 28.74534517 -30.1875 27.5625 C-36.69378395 25.97317873 -41.34377297 23.87904687 -45 18 C-45.81208657 13.09090013 -45.7766235 8.52088769 -43.5 4.0625 C-31.42165479 -5.9021348 -14.06207647 -4.75337796 0 0 Z " fill="#21287B" transform="translate(609,881)"/>
<path d="M0 0 C5.28 -0.061875 10.56 -0.12375 16 -0.1875 C17.65 -0.21481201 19.3 -0.24212402 21 -0.27026367 C37.2850018 -0.43018365 37.2850018 -0.43018365 42.53491211 4.41723633 C45.58239144 7.85619343 46.86579256 10.63108409 47.3125 15.1875 C46.92622153 19.90009733 45.85615293 23.21559737 43 27 C36.72565043 32.20719585 31.24057537 33.15992501 23.25 33.0625 C20.8575 33.041875 18.465 33.02125 16 33 C16 38.28 16 43.56 16 49 C10.72 49 5.44 49 0 49 C0 32.83 0 16.66 0 0 Z M16 10 C16 14.29 16 18.58 16 23 C23.58549469 23.54840232 23.58549469 23.54840232 30 20 C31.33333333 17.66666667 31.33333333 17.66666667 31 15 C29.29826662 11.96144954 29.29826662 11.96144954 26 10 C22.55131328 9.57942845 19.49603088 9.76693127 16 10 Z " fill="#21287B" transform="translate(441,879)"/>
<path d="M0 0 C13.2 0 26.4 0 40 0 C40 3.3 40 6.6 40 10 C31.75 10 23.5 10 15 10 C15 12.31 15 14.62 15 17 C22.59 17 30.18 17 38 17 C38 20.63 38 24.26 38 28 C30.41 28 22.82 28 15 28 C15 31.63 15 35.26 15 39 C23.25 39 31.5 39 40 39 C40 42.3 40 45.6 40 49 C26.8 49 13.6 49 0 49 C0 32.83 0 16.66 0 0 Z " fill="#22297C" transform="translate(677,879)"/>
<path d="M0 0 C16.83 0 33.66 0 51 0 C51 3.3 51 6.6 51 10 C45.06 10 39.12 10 33 10 C33 22.87 33 35.74 33 49 C28.05 49 23.1 49 18 49 C18 36.13 18 23.26 18 10 C12.06 10 6.12 10 0 10 C0 6.7 0 3.4 0 0 Z " fill="#22297C" transform="translate(616,879)"/>
<path d="M0 0 C1 1 1 1 1.09765625 2.84765625 C1.06510417 4.8984375 1.03255208 6.94921875 1 9 C0.34 8.731875 -0.32 8.46375 -1 8.1875 C-1.99 7.795625 -2.98 7.40375 -4 7 C-4.59296875 6.72414063 -5.1859375 6.44828125 -5.796875 6.1640625 C-11.00401738 3.89374842 -15.49755797 3.27786166 -21 5 C-24.79508327 7.90687229 -26.51241941 10.52426627 -28 15 C-28.76743758 21.46967725 -28.72709364 27.73856063 -25.3125 33.44140625 C-22.97665712 36.21521968 -20.4668269 37.37597116 -17 38 C-13.29245348 38.21485782 -9.72102094 38.13781559 -6 38 C-6 34.37 -6 30.74 -6 27 C-9.3 27 -12.6 27 -16 27 C-16 24.69 -16 22.38 -16 20 C-10.39 20 -4.78 20 1 20 C1 26.93 1 33.86 1 41 C-7.35130821 45.17565411 -14.58068782 46.46643043 -23.75 43.9375 C-29.32241828 41.85647299 -32.62055932 37.9331265 -35.11328125 32.6328125 C-37.62282115 25.1815795 -37.9587672 16.355824 -35 9 C-32.04171876 3.39325751 -28.44280916 -0.12719401 -22.48828125 -2.37890625 C-14.69649246 -4.32379544 -7.27177703 -3.26384411 0 0 Z " fill="#21287B" transform="translate(234,885)"/>
<path d="M0 0 C20 0 20 0 26 3 C28.97154892 5.97783127 29.43168201 8.22095225 29.4375 12.375 C29.26017333 19.02474995 26.60300507 22.46294056 22 27 C22.42410156 27.50450684 22.84820312 28.00901367 23.28515625 28.52880859 C25.1951814 30.80667101 27.09765676 33.09071912 29 35.375 C29.66773438 36.1690625 30.33546875 36.963125 31.0234375 37.78125 C31.65507812 38.54179688 32.28671875 39.30234375 32.9375 40.0859375 C33.52402344 40.7876709 34.11054688 41.4894043 34.71484375 42.21240234 C36 44 36 44 36 46 C32.85756843 46.54318599 30.13094993 46.67203003 27 46 C24.03340001 43.61030053 21.98928143 40.66757818 19.8125 37.5625 C18.66737222 35.96955689 17.50764559 34.38698459 16.33203125 32.81640625 C15.83421143 32.10943604 15.3363916 31.40246582 14.82348633 30.67407227 C12.66015051 28.38221445 12.66015051 28.38221445 7 28 C7 33.94 7 39.88 7 46 C4.69 46 2.38 46 0 46 C0 30.82 0 15.64 0 0 Z M7 6 C7 11.28 7 16.56 7 22 C14.52637505 22.46852221 14.52637505 22.46852221 21 19 C22.56430248 15.87139505 22.35627284 13.44397075 22 10 C20.22838773 7.33016164 20.22838773 7.33016164 17 6 C13.59036212 5.68246121 10.43927106 5.81657221 7 6 Z " fill="#21287B" transform="translate(300,883)"/>
<path d="M0 0 C2.475 0.99 2.475 0.99 5 2 C4.125 6.75 4.125 6.75 3 9 C9.93 9.495 9.93 9.495 17 10 C17 11.98 17 13.96 17 16 C9.41 16 1.82 16 -6 16 C-6 19.96 -6 23.92 -6 28 C0.93 28 7.86 28 15 28 C15 29.98 15 31.96 15 34 C8.07 34 1.14 34 -6 34 C-6 39.28 -6 44.56 -6 50 C1.59 50 9.18 50 17 50 C17 51.98 17 53.96 17 56 C7.1 56 -2.8 56 -13 56 C-13 40.82 -13 25.64 -13 10 C-10.03 10 -7.06 10 -4 10 C-3.71125 9.0925 -3.4225 8.185 -3.125 7.25 C-2.23468224 4.67797092 -1.28505587 2.38653234 0 0 Z " fill="#21287B" transform="translate(271,873)"/>
<path d="M0 0 C2.97 0 5.94 0 9 0 C11.14011121 6.22833074 13.27625712 12.45800152 15.40869141 18.68896484 C16.13513285 20.80978383 16.86266879 22.93022825 17.59130859 25.05029297 C18.63665092 28.09245248 19.678088 31.13592427 20.71875 34.1796875 C21.04685669 35.13181122 21.37496338 36.08393494 21.7130127 37.06491089 C22.01332397 37.94567291 22.31363525 38.82643494 22.62304688 39.73388672 C22.88952026 40.51110077 23.15599365 41.28831482 23.43054199 42.08908081 C24 44 24 44 24 46 C21.36 46 18.72 46 16 46 C14.68 42.04 13.36 38.08 12 34 C6.72 33.67 1.44 33.34 -4 33 C-4.474375 34.77375 -4.94875 36.5475 -5.4375 38.375 C-6.875 43.75 -6.875 43.75 -8 46 C-10.31 46 -12.62 46 -15 46 C-13.7845521 40.01855449 -12.22698345 34.29507144 -10.21484375 28.53515625 C-9.95369278 27.77577255 -9.69254181 27.01638885 -9.42347717 26.23399353 C-8.87696629 24.64763945 -8.32815208 23.06207711 -7.77709961 21.47729492 C-6.93169483 19.04580358 -6.09318645 16.61201791 -5.25585938 14.17773438 C-4.72174679 12.63007278 -4.18725539 11.08254185 -3.65234375 9.53515625 C-3.40129379 8.80813004 -3.15024384 8.08110382 -2.8915863 7.33204651 C-1.11785799 2.23571599 -1.11785799 2.23571599 0 0 Z M4 9 C1.49289691 14.93915684 -0.60061654 20.70277443 -2 27 C1.96 27 5.92 27 10 27 C8.72520789 20.8221613 7.1079151 14.94432058 5 9 C4.67 9 4.34 9 4 9 Z " fill="#21287A" transform="translate(117,883)"/>
<path d="M0 0 C9.57 0 19.14 0 29 0 C29 1.98 29 3.96 29 6 C21.74 6 14.48 6 7 6 C7 9.96 7 13.92 7 18 C13.93 18 20.86 18 28 18 C28 19.98 28 21.96 28 24 C21.07 24 14.14 24 7 24 C7 29.28 7 34.56 7 40 C14.26 40 21.52 40 29 40 C29 41.98 29 43.96 29 46 C19.43 46 9.86 46 0 46 C0 30.82 0 15.64 0 0 Z " fill="#21287B" transform="translate(376,883)"/>
<path d="M0 0 C2.31 0 4.62 0 7 0 C7 13.2 7 26.4 7 40 C13.6 40 20.2 40 27 40 C27 41.98 27 43.96 27 46 C18.09 46 9.18 46 0 46 C0 30.82 0 15.64 0 0 Z " fill="#22287C" transform="translate(159,883)"/>
<path d="M0 0 C2.31 0 4.62 0 7 0 C7 15.18 7 30.36 7 46 C4.69 46 2.38 46 0 46 C0 30.82 0 15.64 0 0 Z " fill="#22297B" transform="translate(348,883)"/>
<path d="M0 0 C0.99 0.33 1.98 0.66 3 1 C-0.71750779 5.20240011 -5.31660979 7.99782679 -10 11 C-10 10.01 -10 9.02 -10 8 C-8.06640625 6.2109375 -8.06640625 6.2109375 -5.5625 4.375 C-4.73878906 3.76398438 -3.91507813 3.15296875 -3.06640625 2.5234375 C-2.04353516 1.76933594 -2.04353516 1.76933594 -1 1 C-0.67 0.67 -0.34 0.34 0 0 Z " fill="#1D246C" transform="translate(623,508)"/>
</svg>
