<?xml version="1.0" encoding="UTF-8"?>
<svg version="1.1" xmlns="http://www.w3.org/2000/svg" width="966" height="900">
<path d="M0 0 C1.12282411 -0.00445668 1.12282411 -0.00445668 2.26833153 -0.0090034 C4.79055249 -0.01771274 7.31272611 -0.01920061 9.83496094 -0.02069092 C11.63854067 -0.02531804 13.44211942 -0.03034255 15.24569702 -0.03573608 C20.15985323 -0.04888464 25.07399575 -0.05531146 29.98816681 -0.05974674 C33.06346317 -0.06267751 36.13875581 -0.06678264 39.21405029 -0.07125092 C48.84948904 -0.08494108 58.48491925 -0.09459656 68.12036705 -0.09845281 C79.21468028 -0.10291764 90.30886933 -0.1203855 101.40314484 -0.1494534 C109.99108375 -0.17116574 118.57898801 -0.18116239 127.16695404 -0.18249393 C132.28831248 -0.18353645 137.40955445 -0.18932381 142.53088379 -0.20731354 C147.36375558 -0.22395669 152.19642547 -0.22587209 157.02931595 -0.21717453 C158.78912527 -0.21641237 160.54894617 -0.2206362 162.30872726 -0.23063278 C177.73177076 -0.31299495 192.79766701 1.16425375 207.44433594 6.32794189 C208.75325806 6.77859009 208.75325806 6.77859009 210.08862305 7.23834229 C241.98582771 18.56629427 268.39943307 40.87218463 283.13183594 71.51544189 C289.25830087 84.79702401 294.09439359 99.90058596 293.73339844 114.65216064 C293.69390729 118.11553399 293.75933392 120.83760297 294.81933594 124.14044189 C297.5592052 126.54288883 300.27826416 127.96326295 303.55761719 129.54278564 C308.58918133 132.0073482 312.5935701 135.50384533 316.81933594 139.14044189 C317.66496094 139.86360596 318.51058594 140.58677002 319.38183594 141.33184814 C341.12015876 160.3860183 355.40077519 186.29726051 358.81933594 215.14044189 C359.13129933 220.1439211 359.20117208 225.12799389 359.19433594 230.14044189 C359.1935202 231.15707413 359.1935202 231.15707413 359.19268799 232.19424438 C359.14977091 243.88228118 358.03540453 254.87311193 354.81933594 266.14044189 C354.61034668 266.89003174 354.40135742 267.63962158 354.18603516 268.41192627 C349.41394093 285.06957354 342.17821596 301.20888245 331.81933594 315.14044189 C331.22862305 315.94892578 331.22862305 315.94892578 330.62597656 316.77374268 C306.48550223 349.62537266 271.3921613 371.35306625 231.19433594 378.45294189 C220.9913744 379.81952913 210.93911234 380.28208934 200.64746094 380.31622314 C199.31230909 380.32667903 197.97716455 380.33810675 196.64202881 380.35044861 C191.02977325 380.402312 185.41766675 380.45093701 179.80517578 380.46636963 C177.02118272 380.47451893 174.23763781 380.49311267 171.45379639 380.52330017 C168.84621088 380.55132469 166.23840939 380.56437833 163.63067627 380.56044006 C154.48614788 380.67993253 154.48614788 380.67993253 146.81933594 385.14044189 C143.40925921 390.8463025 142.75545995 397.21706112 141.76074219 403.71466064 C141.57552002 404.87564774 141.39029785 406.03663483 141.19946289 407.23280334 C140.69152774 410.42769182 140.1917871 413.62373954 139.69517899 416.82040405 C139.16659818 420.2069351 138.62593636 423.59153665 138.08666992 426.97637939 C135.96482171 440.32273043 133.88818428 453.67608513 131.82411289 467.03147984 C130.7458791 474.00739752 129.66180063 480.98239421 128.57472134 487.95693874 C127.78104656 493.0543996 126.99745901 498.1532856 126.22131538 503.25344372 C125.73253466 506.45207695 125.23546698 509.64938396 124.73629761 512.84641075 C124.50542089 514.33668436 124.27804574 515.82750531 124.05444336 517.31888771 C123.74651457 519.3696931 123.42612839 521.4181908 123.1027832 523.46661377 C122.92642838 524.61641724 122.75007355 525.7662207 122.56837463 526.9508667 C120.98401197 533.69743918 118.18933401 537.14150716 112.81933594 541.14044189 C109.54410171 542.77805901 105.91825853 542.29676003 102.31811523 542.30157471 C101.43827972 542.30653961 100.55844421 542.31150452 99.65194702 542.31661987 C96.73247504 542.33126082 93.8130574 542.338047 90.89355469 542.34356689 C88.86814878 542.34931712 86.8427429 542.35507487 84.81733704 542.36083984 C80.56612901 542.37135559 76.31493992 542.37719438 72.0637207 542.38067627 C66.61608712 542.38615965 61.16870365 542.41018199 55.72114849 542.43864822 C51.5355608 542.45727236 47.35003336 542.46248011 43.16440773 542.46401215 C41.15615281 542.46704013 39.14789899 542.47507355 37.13968468 542.48819733 C34.32917648 542.50525165 31.51927918 542.50337895 28.70874023 542.49688721 C27.8789415 542.50610199 27.04914276 542.51531677 26.19419861 542.52481079 C21.56071016 542.49128399 18.60821044 542.09718107 14.81933594 539.14044189 C12.21236503 536.16104657 10.80709197 533.7356924 10.83825684 529.67526245 C11.61809912 519.70756422 13.13876245 509.90253062 14.72558594 500.03887939 C15.01360393 498.2262464 15.30123538 496.41355195 15.58850098 494.60079956 C16.18714144 490.83012831 16.78921659 487.06002809 17.39404297 483.29034424 C18.16941892 478.45697283 18.93788201 473.62253385 19.70404816 468.78769493 C20.29562664 465.05739617 20.88987167 461.32752635 21.48503113 457.59779739 C21.76951405 455.81407992 22.0533823 454.0302643 22.33662415 452.24634933 C22.73127984 449.76449986 23.12929774 447.2832136 23.52832031 444.80206299 C23.64471359 444.06651184 23.76110687 443.33096069 23.88102722 442.57312012 C24.35318176 439.65632774 24.882836 436.94994172 25.81933594 434.14044189 C24.60268753 434.14710373 23.38603912 434.15376556 22.13252258 434.16062927 C10.67023131 434.22142801 -0.79202727 434.26640866 -12.25444317 434.29587841 C-18.14748031 434.31153839 -24.04038735 434.332783 -29.93334961 434.36676025 C-35.61972649 434.39934145 -41.30597816 434.41729241 -46.99244118 434.42507362 C-49.16258528 434.43061933 -51.33272249 434.44144863 -53.50281334 434.45763206 C-56.54100766 434.47938954 -59.57868374 434.48240948 -62.61694336 434.48101807 C-63.96453735 434.49719681 -63.96453735 434.49719681 -65.33935547 434.51370239 C-70.11152599 434.49003272 -73.36555017 434.31555164 -77.18066406 431.14044189 C-81.59834778 426.37736435 -81.7223459 423.4879742 -81.51620483 417.19246864 C-80.89807681 408.53353092 -79.36517983 399.96408003 -77.98144531 391.40289307 C-77.63484651 389.21147251 -77.28913475 387.01991151 -76.94423294 384.82822323 C-76.00304862 378.8637301 -75.04949432 372.90127283 -74.0938158 366.93908739 C-73.07647654 360.57800133 -72.07085634 354.21506241 -71.06390381 347.85232544 C-69.34217259 336.98314435 -67.61341596 326.11510169 -65.87927246 315.24789429 C-64.08103541 303.97890231 -62.28630036 292.70936297 -60.4967041 281.43899536 C-60.38594959 280.74150106 -60.27519509 280.04400676 -60.16108438 279.32537626 C-59.48940015 275.09511743 -58.81786228 270.86483536 -58.14635891 266.63454781 C-57.13943476 260.29144141 -56.13220295 253.94838386 -55.12493896 247.60533142 C-55.01437016 246.909016 -54.90380135 246.21270057 -54.78988197 245.49528468 C-53.22724119 235.65473033 -51.66273752 225.81447366 -50.09684339 215.9744365 C-45.10610656 184.61212474 -40.14027814 153.24610474 -35.23506165 121.87028313 C-34.37075824 116.34189231 -33.50506039 110.81372053 -32.63903809 105.28559875 C-32.09299424 101.79947265 -31.5469829 98.31334145 -31.00097656 94.82720947 C-30.80459831 93.57346234 -30.80459831 93.57346234 -30.60425282 92.29438698 C-29.08870382 82.61746807 -27.57784728 72.93984151 -26.07408977 63.26108313 C-25.15657006 57.35860654 -24.23307817 51.45708458 -23.30468678 45.55630827 C-22.78380165 42.24419155 -22.2666832 38.93160599 -21.75545502 35.61797714 C-21.21320392 32.10475002 -20.66066558 28.59329316 -20.10546875 25.08209229 C-19.87679108 23.57447217 -19.87679108 23.57447217 -19.64349365 22.03639507 C-17.33561855 7.65317345 -17.33561855 7.65317345 -12.11816406 3.20294189 C-7.81871955 0.18418298 -5.11631763 -0.00628277 0 0 Z " fill="#002F86" transform="translate(355.1806640625,-0.14044189453125)"/>
<path d="M0 0 C12.05308853 3.56799823 21.76679103 12.78854965 31 21 C31.65613281 21.57105469 32.31226563 22.14210937 32.98828125 22.73046875 C46.20871681 35.00433375 55.14820436 51.82259763 60.875 68.6875 C61.30474121 69.95134521 61.30474121 69.95134521 61.74316406 71.24072266 C65.44222855 82.73185981 66.39140919 93.96833071 66.375 106 C66.37418427 107.01663223 66.37418427 107.01663223 66.37335205 108.05380249 C66.33043497 119.74183929 65.21606859 130.73267003 62 142 C61.79101074 142.74958984 61.58202148 143.49917969 61.36669922 144.27148438 C56.59460499 160.92913165 49.35888002 177.06844056 39 191 C38.60619141 191.53898926 38.21238281 192.07797852 37.80664062 192.63330078 C13.6661663 225.48493077 -21.42717463 247.21262435 -61.625 254.3125 C-71.82796154 255.67908724 -81.8802236 256.14164745 -92.171875 256.17578125 C-93.50702684 256.18623713 -94.84217139 256.19766486 -96.17730713 256.21000671 C-101.78956269 256.26187011 -107.40166918 256.31049511 -113.01416016 256.32592773 C-115.79815322 256.33407703 -118.58169813 256.35267078 -121.36553955 256.38285828 C-123.97312505 256.4108828 -126.58092655 256.42393643 -129.18865967 256.41999817 C-138.33318806 256.53949063 -138.33318806 256.53949063 -146 261 C-149.41007673 266.70586061 -150.06387599 273.07661922 -151.05859375 279.57421875 C-151.24381592 280.73520584 -151.42903809 281.89619293 -151.61987305 283.09236145 C-152.1278082 286.28724992 -152.62754884 289.48329765 -153.12415695 292.67996216 C-153.65273775 296.0664932 -154.19339957 299.45109475 -154.73266602 302.8359375 C-156.85451423 316.18228854 -158.93115166 329.53564324 -160.99522305 342.89103794 C-162.07345684 349.86695562 -163.15753531 356.84195232 -164.2446146 363.81649685 C-165.03828938 368.9139577 -165.82187693 374.0128437 -166.59802055 379.11300182 C-167.08680128 382.31163505 -167.58386896 385.50894207 -168.08303833 388.70596886 C-168.31391505 390.19624246 -168.5412902 391.68706342 -168.76489258 393.17844582 C-169.07282137 395.22925121 -169.39320755 397.27774891 -169.71655273 399.32617188 C-169.89290756 400.47597534 -170.06926239 401.62577881 -170.2509613 402.8104248 C-171.83532397 409.55699729 -174.63000192 413.00106526 -180 417 C-183.27523423 418.63761711 -186.90107741 418.15631813 -190.5012207 418.16113281 C-191.38105621 418.16609772 -192.26089172 418.17106262 -193.16738892 418.17617798 C-196.0868609 418.19081893 -199.00627854 418.19760511 -201.92578125 418.203125 C-203.95118715 418.20887523 -205.97659304 418.21463298 -208.0019989 418.22039795 C-212.25320693 418.23091369 -216.50439602 418.23675248 -220.75561523 418.24023438 C-226.20324882 418.24571775 -231.65063229 418.26974009 -237.09818745 418.29820633 C-241.28377513 418.31683046 -245.46930258 418.32203821 -249.65492821 418.32357025 C-251.66318312 418.32659824 -253.67143694 418.33463166 -255.67965126 418.34775543 C-258.49015945 418.36480976 -261.30005676 418.36293705 -264.1105957 418.35644531 C-264.94039444 418.3656601 -265.77019318 418.37487488 -266.62513733 418.3843689 C-271.25862578 418.3508421 -274.21112549 417.95673917 -278 415 C-280.61252099 412.01426173 -282.01370298 409.58854878 -281.97860718 405.51998901 C-281.20694512 395.69897002 -279.72640716 386.03928121 -278.1640625 376.3203125 C-277.88084957 374.53642482 -277.59800985 372.75247786 -277.31552124 370.96847534 C-276.72529982 367.24815396 -276.13159697 363.52841129 -275.53515625 359.80908203 C-274.77765867 355.08454761 -274.02737705 350.35890343 -273.27955055 345.63282967 C-272.69678297 341.95346426 -272.11090415 338.27459951 -271.5240593 334.59588242 C-271.24666095 332.85560009 -270.97000774 331.11519879 -270.69417191 329.37466812 C-269.21071319 320.02943718 -267.590778 310.74693281 -265.6907959 301.47650146 C-264.60424438 296.00831909 -263.7318031 290.51143032 -262.87109375 285.00390625 C-262.58498985 283.19730278 -262.58498985 283.19730278 -262.29310608 281.35420227 C-261.77839758 278.09965564 -261.26642515 274.84469426 -260.75582886 271.58950043 C-260.32566976 268.85040637 -259.89319391 266.11168018 -259.46069145 263.37295532 C-257.9673085 253.91631991 -256.4827811 244.45830265 -255 235 C-254.76507991 233.50197281 -254.53015559 232.00394628 -254.29522705 230.50592041 C-251.86743237 215.02318665 -249.44556915 199.53952845 -247.03125 184.0546875 C-246.85457291 182.92178787 -246.67789581 181.78888824 -246.49586487 180.62165833 C-246.32771774 179.54236557 -246.15957062 178.46307281 -245.98632812 177.35107422 C-245.82237549 176.30981384 -245.65842285 175.26855347 -245.48950195 174.19573975 C-245.14611625 171.95392777 -244.82066784 169.70932963 -244.50854492 167.46295166 C-244.34523682 166.31131531 -244.18192871 165.15967896 -244.01367188 163.97314453 C-243.87247925 162.93803741 -243.73128662 161.9029303 -243.58581543 160.8364563 C-242.71780067 156.63362072 -241.07253911 153.0277934 -238 150 C-233.15449456 147.02671075 -228.99019605 146.56686239 -223.43457031 146.59936523 C-222.59453964 146.59238617 -221.75450897 146.5854071 -220.88902283 146.57821655 C-218.11862072 146.55826901 -215.34859254 146.55873996 -212.578125 146.55859375 C-210.63440972 146.5468062 -208.69070343 146.53343863 -206.74700928 146.51856995 C-201.62474266 146.48238806 -196.50255558 146.46219917 -191.38018799 146.44702148 C-183.22613209 146.42221827 -175.07225259 146.38179987 -166.91835785 146.32512093 C-164.09715953 146.30905798 -161.27613296 146.305037 -158.45489502 146.30210876 C-143.37750455 146.24124817 -128.36538504 145.51942316 -113.8125 141.25 C-112.42381714 140.85421753 -112.42381714 140.85421753 -111.00708008 140.45043945 C-85.59367344 133.02523208 -64.00070065 120.30419403 -45 102 C-44.30648437 101.36964844 -43.61296875 100.73929687 -42.8984375 100.08984375 C-15.80177993 74.7215738 -2.29965084 36.19967615 0 0 Z " fill="#006FDF" transform="translate(648,124)"/>
<path d="M0 0 C0.64267476 -0.00453111 1.28534952 -0.00906223 1.94749928 -0.01373065 C4.09959426 -0.02638296 6.25143641 -0.02475366 8.40356445 -0.02310181 C9.94804204 -0.02908737 11.49251664 -0.03589299 13.0369873 -0.04345703 C17.23632247 -0.06114175 21.43557612 -0.06581402 25.63494492 -0.0670886 C28.26637362 -0.06851171 30.89778174 -0.07278479 33.52920532 -0.07808304 C42.73343209 -0.09660587 51.93760092 -0.10475263 61.1418457 -0.10317993 C69.67810131 -0.10198452 78.21410161 -0.12296231 86.75029278 -0.15466726 C94.10520186 -0.18099594 101.46002859 -0.19154003 108.81498432 -0.19026911 C113.19529998 -0.18976343 117.57538983 -0.19522235 121.95565796 -0.21662521 C143.54583569 -0.31483561 163.86664816 0.09019537 184.3918457 7.76742554 C185.599375 8.19088257 185.599375 8.19088257 186.83129883 8.62289429 C191.74728265 10.39666151 196.11565046 12.54987543 200.5793457 15.26742554 C202.04878587 50.69726077 185.03867833 85.46399089 162.0793457 111.45492554 C160.58732475 113.06651611 159.0873171 114.67074994 157.5793457 116.26742554 C156.83426758 117.07695679 156.08918945 117.88648804 155.3215332 118.72055054 C133.03102458 142.11454968 99.55253226 157.6469965 67.5793457 161.26742554 C66.87186282 161.34841586 66.16437994 161.42940619 65.43545818 161.51285076 C59.73150018 162.12944832 54.11989932 162.41313236 48.38525391 162.40927124 C47.52696991 162.41274567 46.66868591 162.41622009 45.78439331 162.4197998 C43.94079024 162.4270906 42.09717877 162.43247107 40.25356483 162.43609047 C37.33134167 162.44332761 34.40927955 162.45904323 31.48710632 162.47743225 C23.18576127 162.52959132 14.88451361 162.57791699 6.58300781 162.59335327 C1.48790947 162.60344381 -3.60676823 162.63277984 -8.70170021 162.67467308 C-10.63568757 162.68695609 -12.56973431 162.69210929 -14.50375938 162.68987465 C-17.20787872 162.68751678 -19.91079032 162.70971918 -22.61474609 162.73739624 C-23.40608444 162.73079483 -24.19742279 162.72419342 -25.01274109 162.71739197 C-31.41092893 162.82460578 -35.53528343 164.66128411 -40.3581543 169.01742554 C-40.8840918 169.63617554 -40.8840918 169.63617554 -41.4206543 170.26742554 C-39.36780988 153.38567523 -36.7712008 136.6121996 -34.0065918 119.83480835 C-32.77845154 112.38158914 -31.56254418 104.9263768 -30.3503418 97.47055054 C-30.22731438 96.71428879 -30.10428696 95.95802704 -29.97753143 95.17884827 C-28.1890696 84.17090546 -26.46607913 73.1544342 -24.8034668 62.12680054 C-24.70093472 61.4477491 -24.59840263 60.76869766 -24.49276352 60.06906891 C-23.42557242 52.99791342 -22.36974846 45.92515121 -21.32641602 38.85043335 C-20.98291389 36.55191802 -20.63933117 34.25341474 -20.2956543 31.95492554 C-20.14919464 30.94218567 -20.00273499 29.9294458 -19.85183716 28.88601685 C-16.72819891 8.1134425 -16.72819891 8.1134425 -10.4206543 2.26742554 C-6.96173592 0.04182091 -4.0659771 0.01184795 0 0 Z " fill="#001C64" transform="translate(447.420654296875,108.73257446289063)"/>
<path d="M0 0 C0.75838165 -0.00365067 1.51676331 -0.00730133 2.29812622 -0.01106262 C4.80656327 -0.01916886 7.31435377 -0.00554504 9.82275391 0.0090332 C11.57711792 0.00955234 13.33148251 0.00903257 15.08584595 0.00752258 C18.76955822 0.00761235 22.45305187 0.01803981 26.13671875 0.03613281 C30.82111131 0.05865296 35.50517985 0.05939482 40.18961143 0.05261517 C43.81884554 0.04924309 47.4480081 0.0559683 51.07722855 0.0657444 C52.80170948 0.06955382 54.52619844 0.07076261 56.25068283 0.06915855 C80.4648589 0.06539754 102.62427949 3.82548281 120.62744141 21.45043945 C132.64791774 33.73187593 139.1411469 49.39606633 139.61181641 66.55981445 C139.24017902 88.30060173 130.37512623 108.71516716 115.42431641 124.37231445 C92.77245721 145.49157154 68.7010062 148.78155528 38.9621582 148.88354492 C35.80999935 148.89916959 32.65835343 148.93210455 29.50634766 148.96606445 C28.53768265 148.96304321 27.56901764 148.96002197 26.57099915 148.95690918 C25.67543808 148.96702026 24.77987701 148.97713135 23.85717773 148.98754883 C23.07111649 148.98960327 22.28505524 148.99165771 21.47517395 148.99377441 C18.78991484 149.48941005 17.992448 150.13961508 16.42431641 152.37231445 C15.62958543 155.13533988 15.62958543 155.13533988 15.21337891 158.34082031 C15.02308105 159.56896957 14.8327832 160.79711884 14.63671875 162.06248474 C14.54106628 162.71816374 14.44541382 163.37384274 14.34686279 164.04939079 C14.04645524 166.10675307 13.73082286 168.16126507 13.41113281 170.2157135 C12.73511431 174.57837252 12.07858227 178.94384799 11.42431641 183.30981445 C10.66587416 188.36651285 9.8994603 193.4217662 9.11395264 198.47433662 C8.80371668 200.49598389 8.50755049 202.51937168 8.21191406 204.54319763 C8.02161621 205.77449905 7.83131836 207.00580048 7.63525391 208.27441406 C7.47331543 209.35790634 7.31137695 210.44139862 7.14453125 211.557724 C6.37242025 214.57512396 5.65753539 216.20549258 3.42431641 218.37231445 C1.37536621 218.8735199 1.37536621 218.8735199 -0.99951172 218.87402344 C-1.89053589 218.88340439 -2.78156006 218.89278534 -3.69958496 218.90245056 C-5.13872253 218.88559959 -5.13872253 218.88559959 -6.60693359 218.8684082 C-8.08812683 218.87059105 -8.08812683 218.87059105 -9.59924316 218.87281799 C-11.68728587 218.87115777 -13.77534065 218.8595828 -15.86328125 218.83886719 C-19.06351581 218.8099245 -22.26209339 218.81825342 -25.46240234 218.83129883 C-27.48975416 218.82506122 -29.51710074 218.81667011 -31.54443359 218.8059082 C-32.98357117 218.81031166 -32.98357117 218.81031166 -34.45178223 218.81480408 C-35.3428064 218.8021199 -36.23383057 218.78943573 -37.15185547 218.77636719 C-37.93556519 218.7709642 -38.7192749 218.76556122 -39.5267334 218.75999451 C-42.16361787 218.26107193 -42.94523354 217.48294974 -44.57568359 215.37231445 C-44.74202442 213.27861404 -44.74202442 213.27861404 -44.42695618 210.7612915 C-44.30727793 209.7754734 -44.18759968 208.7896553 -44.06429482 207.77396393 C-43.90305311 206.6514196 -43.74181141 205.52887527 -43.57568359 204.37231445 C-43.39752798 203.12459007 -43.21937237 201.87686569 -43.0358181 200.59133148 C-42.3763057 196.10503936 -41.66570166 191.6271474 -40.95532227 187.14868164 C-40.68550628 185.43075184 -40.41599892 183.71277355 -40.14677429 181.99475098 C-39.41844276 177.35299282 -38.68568391 172.71194368 -37.95200133 168.07102871 C-37.18011081 163.18413623 -36.41200658 158.2966485 -35.64338684 153.40924072 C-34.35038788 145.19114292 -33.05462688 136.97348442 -31.75708008 128.75610352 C-30.26622387 119.31435477 -28.77911131 109.87202265 -27.29418772 100.42933917 C-25.85705114 91.29079559 -24.41776492 82.15259194 -22.97735023 73.01456451 C-22.36882608 69.15405514 -21.76092052 65.29344916 -21.1535244 61.43276215 C-19.65740444 51.92723926 -18.15307472 42.42318058 -16.62271363 32.92310357 C-15.86829989 28.23151307 -15.14044213 23.53654319 -14.42544556 18.83874512 C-14.09128708 16.72904425 -13.75642951 14.61945392 -13.4206543 12.51000977 C-13.2881512 11.59383251 -13.1556481 10.67765526 -13.01912975 9.73371506 C-12.07779784 3.9985958 -12.07779784 3.9985958 -9.93385315 1.32447815 C-6.62443168 -0.01177478 -3.51224458 -0.03772278 0 0 Z M32.42431641 47.37231445 C30.89951729 53.91843479 29.70921938 60.45167777 28.69775391 67.0949707 C28.46894028 68.57410194 28.46894028 68.57410194 28.23550415 70.08311462 C27.75399668 73.19992707 27.27658984 76.31735115 26.79931641 79.43481445 C26.47146339 81.56180952 26.143341 83.68876308 25.81494141 85.81567383 C25.01495235 91.00074509 24.2183194 96.18632334 23.42431641 101.37231445 C28.51054762 101.44710069 33.59645083 101.50121371 38.68310547 101.53710938 C40.40939925 101.55209121 42.13565566 101.57248385 43.86181641 101.59863281 C57.27659499 101.79659395 68.71456608 101.48481712 79.42431641 92.37231445 C86.37017402 84.92076271 87.90659167 77.86007842 87.73681641 67.7902832 C87.15942423 61.47505631 85.03346737 57.98146541 80.61181641 53.55981445 C72.75786038 48.16984463 65.30741216 47.23587007 55.95947266 47.2746582 C55.2812999 47.27607315 54.60312714 47.2774881 53.90440369 47.27894592 C51.76516062 47.284487 49.62602716 47.29702792 47.48681641 47.30981445 C46.02522939 47.31483709 44.56364071 47.31939865 43.10205078 47.32348633 C39.54277114 47.33443701 35.98355449 47.35166 32.42431641 47.37231445 Z " fill="#006FE0" transform="translate(570.57568359375,638.627685546875)"/>
<path d="M0 0 C1.13757248 -0.00569504 1.13757248 -0.00569504 2.29812622 -0.01150513 C4.80675607 -0.0189153 7.31422669 0.00249676 9.82275391 0.02490234 C11.57711654 0.02728909 13.33148176 0.0281916 15.08584595 0.02767944 C18.76963236 0.03080948 22.45303019 0.04737526 26.13671875 0.07421875 C30.82112451 0.10794857 35.5050985 0.11585427 40.18961143 0.11432838 C43.81885786 0.11487724 47.44801288 0.12593013 51.07722855 0.14033127 C52.80170628 0.14662966 54.52619424 0.15062156 56.25068283 0.15211868 C79.54968873 0.19443987 101.6734383 3.33418644 119.22119141 20.25927734 C119.94822266 20.99404297 120.67525391 21.72880859 121.42431641 22.48583984 C122.36017578 23.37142578 122.36017578 23.37142578 123.31494141 24.27490234 C134.30933784 35.51692032 139.58990237 52.02406012 139.79931641 67.42333984 C139.53440716 91.07071752 128.91121673 111.11375081 112.42431641 127.48583984 C97.08018224 142.09568376 76.44780389 148.48182722 55.62744141 148.76708984 C54.59746033 148.78549927 53.56747925 148.80390869 52.50628662 148.82287598 C48.11301763 148.9013525 43.71960523 148.96952864 39.32617188 149.03808594 C36.11401551 149.08970396 32.9019947 149.14696493 29.68994141 149.20458984 C28.69101868 149.21816528 27.69209595 149.23174072 26.66290283 149.24572754 C25.28071564 149.27080383 25.28071564 149.27080383 23.87060547 149.29638672 C23.05819397 149.30891479 22.24578247 149.32144287 21.40875244 149.33435059 C19.34940257 149.36586557 19.34940257 149.36586557 17.42431641 150.48583984 C16.63071711 153.10552852 16.63071711 153.10552852 16.04931641 156.43896484 C15.92484131 157.09020325 15.80036621 157.74144165 15.67211914 158.41241455 C13.43414293 170.45672735 11.71300707 182.60668978 9.90380859 194.72119141 C9.40088847 198.07683361 8.88264821 201.42981275 8.36181641 204.78271484 C8.21172119 205.81386414 8.06162598 206.84501343 7.90698242 207.90740967 C7.75672607 208.8598053 7.60646973 209.81220093 7.45166016 210.79345703 C7.32525146 211.62979675 7.19884277 212.46613647 7.06860352 213.32781982 C6.30427996 215.88789825 5.59159097 216.92990576 3.42431641 218.48583984 C1.36863708 218.86006165 1.36863708 218.86006165 -1.01538086 218.8581543 C-1.90963272 218.86438309 -2.80388458 218.87061188 -3.72523499 218.87702942 C-4.68779709 218.86781967 -5.65035919 218.85860992 -6.64208984 218.84912109 C-7.63192368 218.8496196 -8.62175751 218.8501181 -9.6415863 218.85063171 C-11.73381559 218.84829112 -13.82604769 218.83856351 -15.91821289 218.82202148 C-19.12916087 218.7984062 -22.33928011 218.80146352 -25.55029297 218.80810547 C-27.5808969 218.80252961 -29.61149732 218.79542031 -31.64208984 218.78662109 C-32.60667618 218.7875325 -33.57126251 218.78844391 -34.56507874 218.78938293 C-35.45617844 218.77985092 -36.34727814 218.77031891 -37.26538086 218.76049805 C-38.05131119 218.75589066 -38.83724152 218.75128326 -39.64698792 218.74653625 C-41.57568359 218.48583984 -41.57568359 218.48583984 -43.57568359 216.48583984 C-44.88521358 207.24647862 -42.54697901 197.49108907 -41.06884766 188.36987305 C-40.79875249 186.66348563 -40.52940486 184.95697975 -40.26074219 183.25036621 C-39.53259251 178.6388109 -38.79398916 174.02898566 -38.05339527 169.41941476 C-37.27515836 164.56427274 -36.50651284 159.70761223 -35.73675537 154.85112 C-34.44088903 146.68379161 -33.13891782 138.51745676 -31.83251953 130.35180664 C-30.00299136 118.91631165 -28.18398854 107.47916208 -26.3673749 96.04160941 C-24.34799106 83.33022567 -22.32495835 70.61942015 -20.2979126 57.90925598 C-20.08321253 56.56279404 -20.08321253 56.56279404 -19.86417508 55.18913084 C-19.17522544 50.87247447 -18.48346885 46.55630075 -17.78549576 42.24109364 C-17.52515045 40.63099786 -17.26482362 39.02089909 -17.0045166 37.41079712 C-16.88012419 36.64185558 -16.75573179 35.87291405 -16.62756991 35.08067125 C-15.86008531 30.31540992 -15.13060116 25.54612907 -14.42321777 20.77157593 C-14.25029079 19.64048244 -14.07736382 18.50938894 -13.89919662 17.34401989 C-13.59192074 15.33035806 -13.29675622 13.31478648 -13.0173378 11.2970705 C-12.44875269 7.6468816 -11.93381178 5.04786376 -9.93399048 1.9094696 C-6.65971149 -0.0671014 -3.71307588 -0.05863747 0 0 Z M32.42431641 47.48583984 C31.60535426 52.37457392 30.78753717 57.26349779 29.97070312 62.15258789 C29.69366098 63.8098649 29.4163258 65.46709295 29.13867188 67.12426758 C28.22525845 72.57671917 27.31987778 78.03042723 26.42431641 83.48583984 C26.10672363 85.4167749 26.10672363 85.4167749 25.78271484 87.38671875 C25.59999023 88.52931152 25.41726562 89.6719043 25.22900391 90.84912109 C25.07157715 91.82792236 24.91415039 92.80672363 24.75195312 93.81518555 C24.43444039 96.40331658 24.36332909 98.88144446 24.42431641 101.48583984 C29.36813137 101.56065312 34.31160829 101.61475139 39.25585938 101.65063477 C40.93365223 101.66561218 42.61140669 101.68600138 44.2890625 101.7121582 C57.62261745 101.91466306 69.90049934 101.56510409 80.14697266 91.85302734 C85.65298936 85.81940707 88.04935634 79.36032076 88.67431641 71.23583984 C88.11291385 62.81480147 85.62150353 57.98262779 79.45947266 52.21240234 C69.66563175 46.6411312 58.58450908 47.10342741 47.67431641 47.29833984 C46.18735096 47.31343017 44.70037051 47.32711081 43.21337891 47.33935547 C39.61670627 47.37197945 36.02061168 47.42351514 32.42431641 47.48583984 Z " fill="#002F87" transform="translate(43.57568359375,638.51416015625)"/>
<path d="M0 0 C0.928125 0.804375 0.928125 0.804375 1.875 1.625 C2.05675781 0.99851562 2.23851562 0.37203125 2.42578125 -0.2734375 C2.67714844 -1.09070313 2.92851563 -1.90796875 3.1875 -2.75 C3.43113281 -3.56210937 3.67476562 -4.37421875 3.92578125 -5.2109375 C4.875 -7.375 4.875 -7.375 7.875 -9.375 C10.87390449 -9.58357914 13.7776422 -9.67900936 16.77734375 -9.67578125 C18.08850914 -9.68220894 18.08850914 -9.68220894 19.42616272 -9.68876648 C21.27457819 -9.69450853 23.12301625 -9.69501096 24.97143555 -9.69067383 C27.79840697 -9.68751574 30.62433001 -9.71096755 33.45117188 -9.73632812 C35.24739451 -9.73860133 37.04361997 -9.73930452 38.83984375 -9.73828125 C39.68473862 -9.747491 40.52963348 -9.75670074 41.40013123 -9.76618958 C42.1909761 -9.75996078 42.98182098 -9.75373199 43.79663086 -9.74731445 C44.4892955 -9.74794388 45.18196014 -9.7485733 45.89561462 -9.7492218 C48.64795416 -9.2288656 49.89274611 -8.36158827 51.875 -6.375 C52.11696434 -3.4991703 52.11696434 -3.4991703 51.74960327 -0.04019165 C51.62121441 1.21769543 51.49282555 2.4755825 51.36054611 3.77158737 C50.62350689 9.62091076 49.81102258 15.44611626 48.88134766 21.26806641 C48.68119553 22.55115692 48.4810434 23.83424744 48.27482605 25.15621948 C47.7328863 28.62753822 47.18346293 32.09762944 46.63188982 35.56742907 C46.17018584 38.47525013 45.71179755 41.38359056 45.25323045 44.29190767 C44.17192783 51.14815513 43.08398943 58.00332751 41.9921875 64.85791016 C40.86758058 71.91943494 39.75607174 78.98293854 38.65054095 86.0474726 C37.69735614 92.13485703 36.73530206 98.22079611 35.76628721 104.30568063 C35.18909811 107.93101819 34.61546597 111.55682996 34.05073929 115.18413162 C33.42251444 119.21683571 32.77587453 123.24637484 32.12744141 127.27587891 C31.94343277 128.47380066 31.75942413 129.67172241 31.56983948 130.90594482 C31.39046341 132.00187958 31.21108734 133.09781433 31.02627563 134.22695923 C30.87547861 135.17850199 30.72468159 136.13004475 30.56931496 137.11042213 C29.80200071 139.88937914 28.81410633 141.50714073 26.875 143.625 C24.90197754 144.13293457 24.90197754 144.13293457 22.63476562 144.14257812 C21.78378296 144.15518677 20.93280029 144.16779541 20.05603027 144.18078613 C19.14035278 144.17268921 18.22467529 144.16459229 17.28125 144.15625 C15.8666449 144.16199036 15.8666449 144.16199036 14.42346191 144.16784668 C12.42959526 144.17056863 10.43569307 144.1631877 8.44189453 144.14648438 C5.38623607 144.12507871 2.3329289 144.14627641 -0.72265625 144.171875 C-2.65885937 144.16923177 -4.59506102 144.1641069 -6.53125 144.15625 C-7.44692749 144.16434692 -8.36260498 144.17244385 -9.30603027 144.18078613 C-15.60627347 144.08743815 -15.60627347 144.08743815 -18.21289062 141.76367188 C-19.29112665 139.23547391 -19.35183354 137.34700246 -19.125 134.625 C-19.85203125 135.08390625 -20.5790625 135.5428125 -21.328125 136.015625 C-38.57466652 146.54043752 -57.81644971 150.30325016 -77.6015625 145.6484375 C-95.81438554 140.87271987 -110.41346648 131.02785823 -120.125 114.625 C-131.2263691 95.46373278 -131.60570811 71.6997538 -126.125 50.625 C-124.7288016 46.14924343 -123.04302153 41.90070416 -121.125 37.625 C-120.70605469 36.64273438 -120.28710938 35.66046875 -119.85546875 34.6484375 C-109.96421025 13.04159617 -91.87583979 -1.14247927 -70.09863281 -9.66308594 C-65.21937214 -11.42309634 -60.2258778 -12.49432358 -55.125 -13.375 C-54.37734375 -13.50519531 -53.6296875 -13.63539063 -52.859375 -13.76953125 C-33.91249896 -16.56680626 -15.16071297 -11.52214186 0 0 Z M-71.45703125 43.953125 C-79.0846524 52.95343493 -82.55127199 62.68562916 -82.39453125 74.3984375 C-81.59863423 83.92613222 -77.38575736 91.46510704 -70.125 97.625 C-59.83043306 104.0000059 -48.65521787 105.40001561 -36.83984375 102.94140625 C-26.37266428 99.39345934 -17.17058988 91.90006653 -11.76953125 82.1875 C-7.41974214 72.63994846 -6.03308755 61.31368422 -9.625 51.25 C-14.00016209 42.0560405 -20.678087 36.223824 -30.125 32.625 C-44.72073668 27.90106862 -60.94878469 33.4624802 -71.45703125 43.953125 Z " fill="#006FE0" transform="translate(829.125,713.375)"/>
<path d="M0 0 C0.763125 0.70125 1.52625 1.4025 2.3125 2.125 C2.49425781 1.49851562 2.67601562 0.87203125 2.86328125 0.2265625 C3.11464844 -0.59070313 3.36601562 -1.40796875 3.625 -2.25 C3.86863281 -3.06210937 4.11226562 -3.87421875 4.36328125 -4.7109375 C5.3125 -6.875 5.3125 -6.875 8.3125 -8.875 C11.31140449 -9.08357914 14.2151422 -9.17900936 17.21484375 -9.17578125 C18.52600914 -9.18220894 18.52600914 -9.18220894 19.86366272 -9.18876648 C21.71207819 -9.19450853 23.56051625 -9.19501096 25.40893555 -9.19067383 C28.23590697 -9.18751574 31.06183001 -9.21096755 33.88867188 -9.23632812 C35.68489451 -9.23860133 37.48111997 -9.23930452 39.27734375 -9.23828125 C40.12223862 -9.247491 40.96713348 -9.25670074 41.83763123 -9.26618958 C45.1431354 -9.24015502 47.76723299 -9.07914423 50.87719727 -7.91479492 C55.05496387 -1.97751988 51.49047396 9.58032203 50.41650391 16.26049805 C50.21489151 17.54939941 50.01327911 18.83830078 49.80555725 20.16625977 C49.2560441 23.67737852 48.6979067 27.18707459 48.13785219 30.69652534 C47.55116837 34.3805535 46.97158787 38.06570002 46.39096069 41.75068665 C45.41555636 47.93393218 44.43457971 54.11627386 43.45019531 60.2980957 C42.31370202 67.43555107 41.1858046 74.5743242 40.06254065 81.71387261 C38.97917574 88.5986686 37.88999074 95.48253144 36.79807663 102.36597633 C36.33455544 105.28857795 35.87301453 108.21148201 35.41307449 111.13464928 C34.77046125 115.21662773 34.1193169 119.29720096 33.46728516 123.37768555 C33.18352272 125.18959129 33.18352272 125.18959129 32.89402771 127.0381012 C32.71458115 128.15242523 32.53513458 129.26674927 32.35025024 130.4148407 C32.12072379 131.86019211 32.12072379 131.86019211 31.88656044 133.33474255 C30.27638194 141.16111806 30.27638194 141.16111806 27.3125 144.125 C25.45300293 144.37896729 25.45300293 144.37896729 23.16992188 144.38378906 C22.31563599 144.39009338 21.4613501 144.39639771 20.58117676 144.40289307 C19.19521301 144.39682037 19.19521301 144.39682037 17.78125 144.390625 C16.83439331 144.39253845 15.88753662 144.3944519 14.9119873 144.39642334 C12.90795628 144.39778573 10.90391646 144.39408556 8.89990234 144.38574219 C5.82499447 144.37504347 2.75067086 144.38563572 -0.32421875 144.3984375 C-2.26823046 144.39711591 -4.21224181 144.39455354 -6.15625 144.390625 C-7.08022583 144.39467346 -8.00420166 144.39872192 -8.95617676 144.40289307 C-10.23760559 144.39343658 -10.23760559 144.39343658 -11.54492188 144.38378906 C-12.29833862 144.38219788 -13.05175537 144.38060669 -13.82800293 144.37896729 C-15.6875 144.125 -15.6875 144.125 -17.6875 142.125 C-17.8125 138.5 -17.8125 138.5 -17.6875 135.125 C-19.06808594 135.92164063 -19.06808594 135.92164063 -20.4765625 136.734375 C-39.83942805 147.6547008 -59.14261852 150.72666918 -80.6875 145.125 C-96.45959123 140.61868822 -110.72322973 130.65965481 -118.9765625 116.2890625 C-124.82962848 105.43677424 -128.04601262 94.473632 -128.6875 82.125 C-128.749375 80.99578125 -128.749375 80.99578125 -128.8125 79.84375 C-129.42844656 56.74575415 -121.96813251 32.79981708 -106.1875 15.625 C-104.38772713 13.75217133 -102.54803426 11.93936041 -100.6875 10.125 C-99.95917969 9.38765625 -99.23085937 8.6503125 -98.48046875 7.890625 C-73.4680862 -16.05443881 -27.7588384 -22.8411887 0 0 Z M-73.9296875 48.8359375 C-80.07983091 56.84479091 -83.00704411 67.04698183 -81.6875 77.125 C-79.02132704 87.71394831 -74.16737596 94.97319639 -65.03125 100.8984375 C-56.41615315 105.40700485 -45.85361081 105.43408987 -36.44921875 103.4375 C-24.5003608 99.3813106 -16.36126801 92.17318581 -10.375 81.125 C-6.07413523 71.82184188 -5.46039631 62.29122245 -8.6484375 52.578125 C-12.27888344 44.006997 -19.22856828 37.32350362 -27.75 33.75 C-46.07027561 27.77708823 -62.03272845 34.88616983 -73.9296875 48.8359375 Z " fill="#002F87" transform="translate(301.6875,712.875)"/>
<path d="M0 0 C0.96289444 -0.0038269 1.92578888 -0.00765381 2.91786194 -0.01159668 C4.95461064 -0.01431907 6.99139412 -0.00693507 9.02807617 0.00976562 C12.14516299 0.03114715 15.25993873 0.00998687 18.37695312 -0.015625 C20.35547384 -0.01298132 22.33399311 -0.00785552 24.3125 0 C25.24488998 -0.00809692 26.17727997 -0.01619385 27.13792419 -0.02453613 C33.44582993 0.06678501 33.44582993 0.06678501 36.64160156 1.97753906 C38.97891402 5.75275344 40.17131452 9.68156242 41.4296875 13.921875 C41.85955711 15.31604141 41.85955711 15.31604141 42.29811096 16.7383728 C43.22287958 19.74902947 44.12940932 22.76482178 45.03515625 25.78125 C45.66202011 27.83800332 46.28978772 29.89448141 46.91845703 31.95068359 C48.43594591 36.92694941 49.93782686 41.90772448 51.43133545 46.89123535 C52.1370237 49.24556157 52.84542406 51.59904482 53.55517578 53.95214844 C54.57767117 57.35112454 55.59207456 60.75223677 56.59765625 64.15625 C56.87714111 65.10016602 57.15662598 66.04408203 57.44458008 67.01660156 C57.68845459 67.85932617 57.9323291 68.70205078 58.18359375 69.5703125 C58.38774902 70.27365723 58.5919043 70.97700195 58.80224609 71.70166016 C59.22265625 73.53125 59.22265625 73.53125 59.22265625 76.53125 C59.88265625 76.53125 60.54265625 76.53125 61.22265625 76.53125 C61.50157715 75.79600098 61.78049805 75.06075195 62.06787109 74.30322266 C63.12304412 71.77036123 64.29438289 69.53120365 65.69921875 67.1796875 C66.19687744 66.34228027 66.69453613 65.50487305 67.20727539 64.64208984 C67.74860107 63.7392627 68.28992676 62.83643555 68.84765625 61.90625 C70.02609434 59.9271147 71.20447724 57.94794653 72.3828125 55.96875 C73.31891357 54.40060547 73.31891357 54.40060547 74.27392578 52.80078125 C76.94289935 48.32284414 79.59557638 43.83533837 82.24853516 39.34790039 C84.27345254 35.92602789 86.3042754 32.50771506 88.3359375 29.08984375 C90.83353333 24.88560888 93.30969396 20.67010198 95.765625 16.44140625 C96.83463079 14.61718479 97.90364093 12.79296588 98.97265625 10.96875 C99.44968994 10.13585449 99.92672363 9.30295898 100.41821289 8.44482422 C100.86414795 7.68830566 101.31008301 6.93178711 101.76953125 6.15234375 C102.14948242 5.4967749 102.52943359 4.84120605 102.92089844 4.16577148 C104.97226757 1.59001823 107.21817206 0.65089761 110.4677887 0.26382446 C111.69331703 0.25238907 111.69331703 0.25238907 112.94360352 0.24072266 C114.34008873 0.2215831 114.34008873 0.2215831 115.76478577 0.20205688 C117.26180275 0.19871841 117.26180275 0.19871841 118.7890625 0.1953125 C119.8195018 0.1886557 120.8499411 0.1819989 121.91160583 0.17514038 C124.08778092 0.16502357 126.26398697 0.16032306 128.44018555 0.16064453 C131.77639413 0.15626151 135.11129021 0.11990373 138.44726562 0.08203125 C140.56119339 0.07616498 142.67512744 0.07219432 144.7890625 0.0703125 C146.28911583 0.04875595 146.28911583 0.04875595 147.81947327 0.02676392 C149.21123024 0.0359938 149.21123024 0.0359938 150.63110352 0.04541016 C151.85543846 0.0411351 151.85543846 0.0411351 153.10450745 0.03677368 C155.22265625 0.53125 155.22265625 0.53125 157.04478455 2.38592529 C158.22265625 4.53125 158.22265625 4.53125 157.66015625 7.34228516 C156.06061332 10.89072771 154.232452 14.22845602 152.22265625 17.5546875 C151.83110352 18.21272369 151.43955078 18.87075989 151.03613281 19.54873657 C149.77077242 21.67143489 148.49697204 23.78891795 147.22265625 25.90625 C146.34211651 27.37870812 145.46190936 28.85136518 144.58203125 30.32421875 C139.8153403 38.28658905 134.97345649 46.19367671 130.00390625 54.03125 C125.78213071 60.78609087 121.77712764 67.67531059 117.72265625 74.53125 C112.62322203 83.1541773 107.52859864 91.76700596 102.1484375 100.21875 C97.51326983 107.55908379 93.141412 115.05961429 88.72265625 122.53125 C78.38975811 140.00122832 78.38975811 140.00122832 73.0847168 148.34838867 C67.80327592 156.70262658 62.78855925 165.22404563 57.72827148 173.71337891 C54.29596351 179.46552515 50.84306811 185.20382278 47.296875 190.88671875 C46.74990967 191.76352295 46.20294434 192.64032715 45.6394043 193.54370117 C44.22265625 195.53125 44.22265625 195.53125 42.22265625 196.53125 C40.6245655 196.62643477 39.02255313 196.65919846 37.42163086 196.66064453 C36.42397202 196.66379669 35.42631317 196.66694885 34.39842224 196.67019653 C32.77807823 196.66716019 32.77807823 196.66716019 31.125 196.6640625 C30.02039932 196.66501923 28.91579865 196.66597595 27.77772522 196.66696167 C25.439951 196.66764301 23.10217489 196.66579196 20.7644043 196.66162109 C17.17166937 196.65626716 13.57905917 196.6615703 9.98632812 196.66796875 C7.72005181 196.66730806 5.45377556 196.66602709 3.1875 196.6640625 C2.10524643 196.66608673 1.02299286 196.66811096 -0.09205627 196.67019653 C-1.08656296 196.66704437 -2.08106964 196.66389221 -3.10571289 196.66064453 C-3.9857045 196.65984894 -4.86569611 196.65905334 -5.77235413 196.65823364 C-7.77734375 196.53125 -7.77734375 196.53125 -8.77734375 195.53125 C-9.13332728 191.07771905 -8.61227478 188.51962126 -6.2421875 184.7578125 C-5.40977539 183.41432739 -5.40977539 183.41432739 -4.56054688 182.04370117 C-3.95146484 181.09084229 -3.34238281 180.1379834 -2.71484375 179.15625 C-1.77995117 177.65831909 -1.77995117 177.65831909 -0.82617188 176.13012695 C0.49823092 174.01131355 1.82864166 171.89624554 3.16455078 169.78466797 C5.88843751 165.47879435 8.5829865 161.15486951 11.27905273 156.83154297 C12.5401031 154.81189818 13.80378286 152.79389188 15.07055664 150.77783203 C16.23497201 148.92442958 17.39270635 147.06680901 18.54296875 145.20458984 C19.6694912 143.41165077 20.83181589 141.64074959 22.02734375 139.89306641 C22.58679688 139.0479248 23.14625 138.2027832 23.72265625 137.33203125 C24.22796875 136.59766846 24.73328125 135.86330566 25.25390625 135.10668945 C27.91483719 128.03255625 23.80779827 119.58478195 21.53125 112.8203125 C21.15396255 111.67888794 20.77667511 110.53746338 20.38795471 109.3614502 C19.36402215 106.26643496 18.33391566 103.17355485 17.30157471 100.08133698 C16.2241829 96.84776471 15.15596277 93.61117206 14.08789062 90.37451172 C13.8731138 89.72370195 13.65833698 89.07289219 13.43705177 88.40236092 C13.00049858 87.07940062 12.56398864 85.75642604 12.12752151 84.43343735 C11.46588344 82.42881494 10.80338456 80.42447869 10.14071655 78.42019653 C6.12138423 66.25794778 2.16672222 54.07529833 -1.74386597 41.87762451 C-2.42639064 39.7501791 -3.11054311 37.62325514 -3.79641724 35.49688721 C-5.83129815 29.18738396 -7.83314393 22.86930057 -9.77734375 16.53125 C-9.98681641 15.85848022 -10.19628906 15.18571045 -10.41210938 14.49255371 C-10.93093561 12.80113115 -11.41833727 11.10015095 -11.90234375 9.3984375 C-12.15242188 8.5307373 -12.4025 7.66303711 -12.66015625 6.76904297 C-12.77734375 4.53125 -12.77734375 4.53125 -11.94311523 2.26025391 C-8.36071081 -0.5996929 -4.44683044 -0.03853285 0 0 Z " fill="#002F87" transform="translate(378.77734375,703.46875)"/>
<path d="M0 0 C1.24160133 -0.01429802 1.24160133 -0.01429802 2.50828552 -0.02888489 C3.39895218 -0.02797348 4.28961884 -0.02706207 5.20727539 -0.02612305 C6.12577774 -0.03040817 7.04428009 -0.0346933 7.99061584 -0.03910828 C9.93318864 -0.04485123 11.87578293 -0.04535209 13.81835938 -0.04101562 C16.79016839 -0.03785749 19.76098024 -0.06130878 22.73266602 -0.08666992 C24.62003455 -0.0889431 26.50740576 -0.08964633 28.39477539 -0.08862305 C29.72773903 -0.10243767 29.72773903 -0.10243767 31.08763123 -0.11653137 C34.49567504 -0.09098276 37.24986714 0.04588537 40.45947266 1.23486328 C43.97706729 6.33101434 41.64763143 14.96878174 40.70401001 20.78872681 C40.57883102 21.59593748 40.45365203 22.40314816 40.32467973 23.23481977 C39.90747911 25.91404458 39.48050268 28.59161376 39.0534668 31.26928711 C38.75071701 33.20002816 38.44856289 35.1308627 38.1469574 37.06178284 C37.32882637 42.28777512 36.50207014 47.51236899 35.67349291 52.73671389 C34.80647843 58.21133944 33.94663165 63.6870911 33.08578491 69.16268921 C31.63952717 78.35474289 30.1878011 87.54591997 28.73266602 96.73657227 C27.05134653 107.35615123 25.37799786 117.97696217 23.70906413 128.59849417 C22.10180416 138.82668878 20.48956312 149.05409181 18.87482834 159.28110886 C18.18836409 163.62918239 17.50352214 167.97750683 16.81996536 172.32603836 C16.01473603 177.44682736 15.20510545 182.56690182 14.39209175 187.68646049 C14.09470297 189.56352974 13.79879214 191.44083383 13.50448036 193.31838799 C13.10198336 195.88443976 12.69408324 198.44957677 12.28482056 201.01455688 C12.17002684 201.75454473 12.05523313 202.49453258 11.93696082 203.2569443 C10.025222 215.11686784 10.025222 215.11686784 6.86743164 218.2746582 C4.93873596 218.54208374 4.93873596 218.54208374 2.55712891 218.56518555 C1.66602921 218.57794525 0.7749295 218.59070496 -0.14317322 218.60385132 C-1.59005272 218.60718979 -1.59005272 218.60718979 -3.06616211 218.6105957 C-4.54947777 218.6205809 -4.54947777 218.6205809 -6.0627594 218.63076782 C-8.15672949 218.64090491 -10.25073196 218.64558452 -12.34472656 218.64526367 C-15.55384378 218.6496361 -18.76158538 218.68594293 -21.97045898 218.72387695 C-24.00235531 218.72974494 -26.03425818 218.73371445 -28.06616211 218.7355957 C-29.02872421 218.74996674 -29.99128632 218.76433777 -30.98301697 218.77914429 C-31.87726883 218.77299103 -32.77152069 218.76683777 -33.69287109 218.76049805 C-34.87295998 218.7647731 -34.87295998 218.7647731 -36.07688904 218.76913452 C-38.13256836 218.2746582 -38.13256836 218.2746582 -39.96643066 216.78262329 C-41.72941116 212.99105258 -40.89819796 209.64708 -40.23046875 205.66137695 C-40.08715402 204.71799973 -39.94383928 203.7746225 -39.79618168 202.80265808 C-39.45586154 200.58193938 -39.10678262 198.36255358 -38.75120926 196.14422607 C-38.063016 191.83961169 -37.4006121 187.5314297 -36.74069214 183.22241211 C-35.19691248 173.17341566 -33.61961 163.12977783 -32.038306 153.08662796 C-31.56256836 150.0643276 -31.08745012 147.04193051 -30.61253548 144.01950073 C-28.95270761 133.45639455 -27.2904527 122.89367352 -25.62597656 112.33129883 C-24.07804395 102.50803483 -22.53569825 92.68390425 -20.99583668 82.85937214 C-19.66777711 74.38783982 -18.33576591 65.91693494 -17.00069004 57.44650555 C-16.2057103 52.40226398 -15.41234383 47.3577817 -14.62301445 42.31265259 C-13.8830612 37.5839505 -13.1381982 32.85604784 -12.38954544 28.12871552 C-12.1160597 26.39638883 -11.84432854 24.66378409 -11.5744915 22.93088531 C-11.2057017 20.56430841 -10.83056633 18.19882099 -10.45384216 15.83349609 C-10.3488767 15.15004529 -10.24391125 14.46659449 -10.13576502 13.76243305 C-9.4918223 9.77129436 -8.68993304 6.01340987 -7.13256836 2.2746582 C-4.07508312 0.23633471 -3.44445222 0.02181738 0 0 Z " fill="#006FE0" transform="translate(924.132568359375,638.725341796875)"/>
</svg>
