<?xml version="1.0" encoding="UTF-8"?>
<svg version="1.1" xmlns="http://www.w3.org/2000/svg" width="256" height="256">
<path d="M0 0 C84.48 0 168.96 0 256 0 C256 84.48 256 168.96 256 256 C171.52 256 87.04 256 0 256 C0 171.52 0 87.04 0 0 Z " fill="#4945FD" transform="translate(0,0)"/>
<path d="M0 0 C29.04 0 58.08 0 88 0 C88 29.04 88 58.08 88 88 C73.48 88 58.96 88 44 88 C44 73.48 44 58.96 44 44 C29.48 44 14.96 44 0 44 C0 29.48 0 14.96 0 0 Z " fill="#FDFDFE" transform="translate(90,78)"/>
<path d="M0 0 C14.19 0 28.38 0 43 0 C43 14.52 43 29.04 43 44 C28.81 44 14.62 44 0 44 C0 29.48 0 14.96 0 0 Z " fill="#9492FE" transform="translate(91,122)"/>
<path d="M0 0 C14.19 0 28.38 0 43 0 C43 2 43 2 40.8125 4.3125 C39.4203125 5.6428125 39.4203125 5.6428125 38 7 C34.74078064 10.23856923 31.51278756 13.50685297 28.29272461 16.78422546 C25.84555812 19.27172772 23.39022967 21.75110951 20.93457031 24.23022461 C19.64216868 25.53779451 18.3524609 26.84803237 17.06542969 28.16088867 C15.19652161 30.06621333 13.31806415 31.96165654 11.4375 33.85546875 C10.86652588 34.44192673 10.29555176 35.0283847 9.70727539 35.63261414 C9.16321045 36.17690567 8.61914551 36.7211972 8.05859375 37.28198242 C7.58736084 37.75987717 7.11612793 38.23777191 6.63061523 38.73014832 C5 40 5 40 0 42 C0 28.14 0 14.28 0 0 Z " fill="#928FFE" transform="translate(134,166)"/>
<path d="M0 0 C0.33 0 0.66 0 1 0 C1 14.52 1 29.04 1 44 C-12.86 44 -26.72 44 -41 44 C-39.24964649 40.49929299 -38.0918529 38.84973082 -35.40820312 36.19702148 C-34.67404175 35.46623886 -33.93988037 34.73545624 -33.18347168 33.98252869 C-32.39073853 33.20325516 -31.59800537 32.42398163 -30.78125 31.62109375 C-29.56072937 30.40837547 -29.56072937 30.40837547 -28.31555176 29.17115784 C-25.71506436 26.58848435 -23.10799577 24.01258958 -20.5 21.4375 C-17.89287531 18.85798807 -15.28721578 16.27703898 -12.68444824 13.69313049 C-11.0645511 12.08549345 -9.44198832 10.48053708 -7.81652832 8.87852478 C-7.08236694 8.15089432 -6.34820557 7.42326385 -5.59179688 6.67358398 C-4.94496948 6.03500961 -4.29814209 5.39643524 -3.63171387 4.73851013 C-1.80918204 2.89248029 -1.80918204 2.89248029 0 0 Z " fill="#9390FE" transform="translate(89,78)"/>
</svg>
