<?xml version="1.0" encoding="UTF-8"?>
<svg version="1.1" xmlns="http://www.w3.org/2000/svg" width="1000" height="1000">
<path d="M0 0 C1.27236131 -0.00205263 2.54472261 -0.00410527 3.85564032 -0.0062201 C7.38226854 -0.01176183 10.90887236 -0.01111893 14.43550353 -0.00944251 C18.27436524 -0.0087093 22.11322019 -0.01373932 25.952079 -0.01801753 C33.56382442 -0.02558654 41.17556283 -0.02779003 48.78731163 -0.02834659 C57.90587356 -0.02926132 67.02442902 -0.03593214 76.14298816 -0.04269341 C98.18181587 -0.05874498 120.22064288 -0.06465585 142.25947538 -0.06944216 C152.68851883 -0.07177907 163.11756174 -0.07538184 173.54660477 -0.07913754 C209.25688656 -0.09197264 244.96716804 -0.10269159 280.67745209 -0.10614014 C282.91869322 -0.10636177 285.15993435 -0.10658355 287.40117548 -0.10680549 C289.64778543 -0.10702613 291.89439538 -0.10724661 294.14100534 -0.10746694 C298.64797994 -0.10790948 303.15495453 -0.1083566 307.66192913 -0.10880661 C309.33812769 -0.1089707 309.33812769 -0.1089707 311.04818884 -0.1091381 C347.27311392 -0.11276784 383.49801897 -0.12868499 419.72293639 -0.15199697 C458.03539344 -0.17660721 496.34783906 -0.19031354 534.66030425 -0.19150805 C538.86820456 -0.1916795 543.07610486 -0.19189493 547.28400517 -0.19214249 C548.32008421 -0.19219826 549.35616326 -0.19225402 550.42363864 -0.19231148 C567.07902352 -0.19346092 583.73438781 -0.20447386 600.38976574 -0.21902954 C617.13948274 -0.23341424 633.88917341 -0.2366204 650.63889489 -0.22858956 C660.581699 -0.22414253 670.52441799 -0.22795675 680.46721086 -0.24382807 C687.12001185 -0.25361304 693.77275353 -0.25236641 700.42555404 -0.24239184 C704.20881569 -0.23702505 707.99191448 -0.23620724 711.77516232 -0.24890056 C755.08039314 -0.38485436 791.92788897 9.03199206 823.98932171 39.84627151 C853.79951299 69.5309462 863.34616362 107.91303435 863.48452245 148.79498756 C863.48900943 152.23520842 863.48345218 155.67537859 863.47672557 159.11559307 C863.47159566 162.88965334 863.47819409 166.66369771 863.48321223 170.43775564 C863.49039757 177.03525447 863.49024005 183.6327205 863.48511791 190.23022079 C863.47752167 200.04134666 863.48143661 209.8524451 863.48753453 219.66357081 C863.49804373 237.19123221 863.49716209 254.71887899 863.4913767 272.24654177 C863.48633858 287.58624473 863.48503545 302.92594236 863.48742199 318.26564598 C863.48765114 319.79401904 863.48765114 319.79401904 863.48788493 321.35326833 C863.48850764 325.48975566 863.48914445 329.62624298 863.48980446 333.76273031 C863.49591777 372.53934425 863.49038305 411.3159489 863.47961066 450.09256141 C863.47012069 484.51462014 863.47096865 518.93666408 863.48053265 553.35872269 C863.491251 592.06450854 863.49548344 630.77028619 863.48930812 669.47607332 C863.48866672 673.60518014 863.48804104 677.73428696 863.48742199 681.86339378 C863.48726383 682.88002687 863.48710568 683.89665996 863.48694273 684.94410011 C863.48467147 700.27039418 863.48732148 715.5966823 863.4923811 730.92297554 C863.498108 748.3571423 863.49665211 765.79129221 863.48581961 783.22545689 C863.47996238 792.97277551 863.47954144 802.72005761 863.48711196 812.46737526 C863.49161723 818.98952093 863.48876877 825.51163748 863.48010242 832.03377886 C863.4753742 835.74221085 863.47365623 839.4505706 863.48091438 843.15900015 C863.55361545 883.25899986 863.55361545 883.25899986 858.96979046 898.94392776 C858.75290569 899.71905716 858.53602093 900.49418655 858.3125639 901.29280472 C848.09206678 936.69018076 824.6388051 966.12544194 792.44269085 984.02034378 C772.09851122 994.98060828 750.58850673 1000.29733649 727.49457264 1000.26285553 C726.21601249 1000.26490816 724.93745234 1000.2669608 723.62014794 1000.26907563 C720.07148622 1000.27462472 716.5228487 1000.2739731 712.97418403 1000.27229804 C709.11320551 1000.27156555 705.25223374 1000.27659315 701.39125812 1000.28087306 C693.73349593 1000.28844628 686.07574072 1000.29064578 678.41797518 1000.29120212 C669.24523851 1000.29211643 660.07250827 1000.29878601 650.89977437 1000.30554894 C628.72948842 1000.32160472 606.55920316 1000.32751183 584.38891244 1000.33229769 C573.89897663 1000.33463415 563.40904136 1000.33823686 552.91910597 1000.34199307 C517.00474802 1000.35482845 481.09039036 1000.36554745 445.17603016 1000.36899567 C442.92174995 1000.3692173 440.66746973 1000.36943908 438.41318952 1000.36966102 C436.15348986 1000.36988166 433.8937902 1000.37010214 431.63409054 1000.37032247 C427.10080822 1000.37076502 422.5675259 1000.37121213 418.03424358 1000.37166214 C416.9102541 1000.37177153 415.78626462 1000.37188092 414.62821486 1000.37199363 C378.18861999 1000.37562369 341.74904502 1000.39154188 305.30945777 1000.4148525 C266.7756047 1000.43945773 228.241763 1000.45316884 189.70790184 1000.45436358 C185.47643049 1000.45453504 181.24495915 1000.45475046 177.01348782 1000.45499802 C175.97159482 1000.45505379 174.92970182 1000.45510955 173.85623631 1000.45516701 C157.10090941 1000.45631688 140.34560295 1000.46733346 123.59028294 1000.48188507 C106.74302049 1000.49626332 89.8957842 1000.49947956 73.0485173 1000.49144509 C63.0453098 1000.48699505 53.04218686 1000.49082441 43.03899049 1000.5066836 C36.34844356 1000.51645804 29.65795565 1000.51523189 22.96740921 1000.50524737 C19.16093104 1000.49987307 15.35461485 1000.4990875 11.54815032 1000.51175609 C-23.24215975 1000.62016125 -55.64562373 995.21080089 -83.78020954 973.13142776 C-84.31549274 972.71280472 -84.85077595 972.29418167 -85.40227985 971.86287308 C-113.30713388 949.81035516 -131.68670307 918.7114217 -136.57546993 883.33264663 C-137.03616154 878.3796086 -136.92058336 873.39542989 -136.91443062 868.4255228 C-136.91795896 866.49258421 -136.91795896 866.49258421 -136.92155859 864.52059636 C-136.9279453 860.93903022 -136.92812127 857.35748655 -136.92728118 853.7759158 C-136.92745094 849.88097509 -136.93336006 845.98604236 -136.93852204 842.09110564 C-136.94784314 834.36364005 -136.95176927 826.63618019 -136.95404101 818.90870968 C-136.9570044 809.65325394 -136.96570267 800.39780579 -136.97445529 791.14235404 C-136.99529614 768.76989776 -137.0057693 746.39744017 -137.01458489 724.02497645 C-137.0187923 713.43894379 -137.0240142 702.85291169 -137.02926942 692.26687951 C-137.04716017 656.02304204 -137.06215536 619.77920442 -137.06958961 583.5353632 C-137.07006437 581.26006756 -137.07054026 578.98477191 -137.07101728 576.70947627 C-137.07125365 575.58114338 -137.07149003 574.45281049 -137.07173357 573.29028569 C-137.07293475 567.57367744 -137.07415021 561.85706921 -137.07537556 556.14046097 C-137.07561571 555.00598622 -137.07585586 553.87151147 -137.07610328 552.7026587 C-137.08399397 515.9308414 -137.10742076 479.15905637 -137.1399315 442.38725316 C-137.17424791 403.50203999 -137.19394248 364.61684571 -137.19723386 325.73161715 C-137.19765139 321.46077549 -137.19813095 317.18993383 -137.19865704 312.91909218 C-137.19878023 311.86750547 -137.19890342 310.81591877 -137.19903034 309.7324658 C-137.20136021 292.82590827 -137.21700834 275.91938828 -137.23749888 259.01284411 C-137.25777908 242.0097117 -137.26322382 225.00662428 -137.25372825 208.00348202 C-137.2485217 197.90958166 -137.2543507 187.81583134 -137.27626292 177.72195265 C-137.28981227 170.96836703 -137.28865764 164.2148842 -137.27586096 157.46129746 C-137.26899171 153.62039982 -137.2681996 149.77978815 -137.28542105 145.93891654 C-137.46734139 102.68624204 -125.59208516 67.40318212 -94.78020954 36.13142776 C-68.57060255 12.08591677 -35.39252268 -0.05327594 0 0 Z " fill="#635BFF" transform="translate(136.7802095413208,-0.13142776489257813)"/>
<path d="M0 0 C1.47335312 0.00040787 1.47335312 0.00040787 2.97647095 0.00082397 C18.37366178 0.02034315 33.55671998 0.5311934 48.875 2.1875 C50.97004385 2.39591614 53.06509614 2.60424736 55.16015625 2.8125 C100.07720615 7.47177542 150.95265647 15.72632824 191.875 36.1875 C191.875 97.5675 191.875 158.9475 191.875 222.1875 C187.96439209 220.88396403 184.76180822 219.74831121 181.171875 217.9375 C153.6925277 204.30924603 124.60883707 193.75210289 94.875 186.1875 C93.99908203 185.95853027 93.12316406 185.72956055 92.22070312 185.49365234 C77.62547323 181.71893709 62.95829725 179.10518681 48.0625 176.875 C46.77735504 176.68141403 46.77735504 176.68141403 45.46624756 176.48391724 C30.16399182 174.19802924 15.10263987 172.97611612 -0.375 173 C-1.10078247 173.00060425 -1.82656494 173.0012085 -2.57434082 173.00183105 C-22.37999294 173.04656863 -44.69602161 173.40888427 -60.4453125 187.22265625 C-68.53100793 195.68130811 -70.78565181 203.98485936 -70.66186523 215.43334961 C-70.20648034 226.15783165 -66.21230351 234.1368374 -58.75390625 241.81640625 C-33.39980545 264.6840722 4.04429471 273.84523008 35.73260498 284.46875 C104.50369899 307.54069676 177.16702958 337.84884596 211.875 406.1875 C220.87575721 424.79834274 225.67772334 443.84084502 228.875 464.1875 C228.99504395 464.9088916 229.11508789 465.6302832 229.23876953 466.37353516 C233.38641378 491.95788617 231.63636893 518.86296902 226.875 544.1875 C226.72546875 545.00943848 226.5759375 545.83137695 226.421875 546.67822266 C220.96453104 575.75247525 207.30296688 604.16015626 188.875 627.1875 C188.46556152 627.69990234 188.05612305 628.21230469 187.63427734 628.74023438 C176.51788539 642.54340606 164.157839 654.688165 149.875 665.1875 C148.56595703 666.15429688 148.56595703 666.15429688 147.23046875 667.140625 C119.9024109 686.7426568 89.16081259 699.30509563 56.875 708.1875 C56.04323242 708.41775879 55.21146484 708.64801758 54.35449219 708.88525391 C1.66081182 723.16387942 -56.1964626 723.87286937 -110.125 717.1875 C-110.79694397 717.105 -111.46888794 717.0225 -112.16119385 716.9375 C-236.86262344 701.44987656 -236.86262344 701.44987656 -263.125 675.1875 C-263.22268222 672.75900529 -263.25496531 670.35898637 -263.24525452 667.93003845 C-263.24610894 667.16147618 -263.24696337 666.39291391 -263.24784368 665.60106188 C-263.24950081 663.00607214 -263.24397334 660.41114597 -263.23852539 657.81616211 C-263.23824354 655.96382143 -263.2384012 654.11148063 -263.2389679 652.25914001 C-263.23925597 647.21389589 -263.23335773 642.16867532 -263.22639394 637.12343669 C-263.22016195 631.85699631 -263.21955672 626.59055544 -263.21836853 621.32411194 C-263.21525475 611.34392042 -263.20704075 601.3637398 -263.19701904 591.38355309 C-263.18585933 580.0246181 -263.18034781 568.6656826 -263.17532361 557.3067435 C-263.16485817 533.93365628 -263.14725784 510.56057875 -263.125 487.1875 C-259.59118614 488.34124036 -256.31542532 489.47844387 -253.0703125 491.296875 C-252.3067041 491.71493408 -251.5430957 492.13299316 -250.75634766 492.5637207 C-249.92925293 493.01706787 -249.1021582 493.47041504 -248.25 493.9375 C-238.9439443 498.92668779 -229.42571838 503.2910979 -219.75 507.5 C-219.08534729 507.78991821 -218.42069458 508.07983643 -217.73590088 508.37854004 C-202.92418563 514.82509442 -188.0079082 520.80386247 -172.6875 525.9375 C-171.5498822 526.31902222 -171.5498822 526.31902222 -170.38928223 526.70825195 C-144.89128556 535.19571912 -118.47950219 542.21325811 -91.81884766 545.81396484 C-89.0629662 546.19610175 -86.32040771 546.63591331 -83.57421875 547.08203125 C-59.46376971 550.79164816 -32.76128016 551.88763398 -9.125 545.1875 C-8.11638916 544.90664551 -8.11638916 544.90664551 -7.08740234 544.62011719 C5.19872926 541.05883048 16.1666721 535.42897591 22.875 524.1875 C27.92249968 513.8300924 29.9396919 502.24365766 27.0390625 490.92578125 C17.18659293 465.63336776 -7.87218467 454.55137414 -31.125 444.1875 C-39.13169443 440.70065442 -47.31884613 437.72180067 -55.55957031 434.84301758 C-135.53874988 406.89900889 -135.53874988 406.89900889 -169.125 388.1875 C-170.21506348 387.58252686 -170.21506348 387.58252686 -171.32714844 386.96533203 C-186.53576151 378.45550591 -200.97231725 368.6455472 -214.125 357.1875 C-214.62950684 356.75002441 -215.13401367 356.31254883 -215.65380859 355.86181641 C-249.72214642 326.09728318 -268.54791318 285.18552082 -271.9440918 240.23950195 C-275.17351105 185.75776091 -262.24963181 130.85946488 -227.125 88.1875 C-226.67576172 87.63143066 -226.22652344 87.07536133 -225.76367188 86.50244141 C-183.86264918 34.79634629 -118.63735708 10.37897643 -54.25 2.4375 C-53.32622559 2.32196777 -52.40245117 2.20643555 -51.45068359 2.08740234 C-34.37930145 0.13799308 -17.16233852 -0.01806504 0 0 Z " fill="#FEFEFF" transform="translate(520.125,139.8125)"/>
</svg>
